<?xml version="1.0" encoding="UTF-8"?>
<!DOCTYPE svg PUBLIC "-//W3C//DTD SVG 1.1//EN" "http://www.w3.org/Graphics/SVG/1.1/DTD/svg11.dtd">
<!-- Creator: CorelDRAW -->
<svg xmlns="http://www.w3.org/2000/svg" xml:space="preserve" width="6.7732mm" height="6.7732mm" version="1.1" style="shape-rendering:geometricPrecision; text-rendering:geometricPrecision; image-rendering:optimizeQuality; fill-rule:evenodd; clip-rule:evenodd"
viewBox="0 0 677.32 677.32"
 xmlns:xlink="http://www.w3.org/1999/xlink"
 xmlns:xodm="http://www.corel.com/coreldraw/odm/2003">
 <defs>
  <style type="text/css">
   <![CDATA[
    .str2 {stroke:black;stroke-width:16.93;stroke-miterlimit:22.9256}
    .str0 {stroke:#E6E6E6;stroke-width:16.93;stroke-miterlimit:22.9256}
    .str1 {stroke:white;stroke-width:16.93;stroke-miterlimit:22.9256}
    .fil30 {fill:none}
    .fil1 {fill:black}
    .fil12 {fill:#0064B2}
    .fil16 {fill:#00CCFF}
    .fil3 {fill:#455A63}
    .fil17 {fill:#4679C7}
    .fil18 {fill:#4BAE4F}
    .fil4 {fill:#55BA52}
    .fil25 {fill:#57B952}
    .fil28 {fill:#666666}
    .fil22 {fill:#7C83A8}
    .fil27 {fill:#999933}
    .fil24 {fill:#999999}
    .fil8 {fill:#99CC99}
    .fil20 {fill:#9AD29E}
    .fil11 {fill:#CCCCCC}
    .fil5 {fill:#E6E6E6}
    .fil7 {fill:#F7F7F9}
    .fil23 {fill:#F7F9FA}
    .fil14 {fill:#F8F8FA}
    .fil19 {fill:#F8FAFB}
    .fil9 {fill:#FAC02D}
    .fil21 {fill:#FDA302}
    .fil2 {fill:#FDC105}
    .fil10 {fill:#FED04B}
    .fil13 {fill:#FEFEFE}
    .fil6 {fill:#FF1F1F}
    .fil26 {fill:#FF9966}
    .fil29 {fill:#FFA941}
    .fil0 {fill:white}
    .fil15 {fill:#4A8DAC;fill-rule:nonzero}
   ]]>
  </style>
   <clipPath id="id0">
    <rect x="-8060.27" y="1998.13" width="20387.72" height="2573.86"/>
   </clipPath>
 </defs>
 <g id="Camada_x0020_1">
  <metadata id="CorelCorpID_0Corel-Layer"/>
  <rect class="fil0" x="-6671.74" y="-1303.86" width="10160" height="677.33"/>
  <path class="fil1" d="M-3038.24 -22760.37c-254.44,-22.91 -517.09,-78.85 -784.53,-103.45 -1210.73,-111.37 -2350.71,-9.41 -3469.08,408.02 -997.14,372.19 -1612.26,834.89 -2303.33,1455.79 -558.1,501.43 -1286.92,1502.57 -1607.26,2168.75 -82.08,170.71 -167.7,346.47 -245.76,516.19l-218.87 549.41c123.17,-40.83 585.4,-449.9 761.9,-582.15 774.99,-580.69 1661.63,-1093.77 2618.31,-1428.51 1141.58,-399.44 2285.01,-490.65 3507,-232.12 185.94,39.34 363.68,85.71 537.75,137.82 176.7,52.9 344.52,136.95 496.04,182.76 -29.19,289.29 -778.79,2567.09 -755.45,2751.31 147.25,35.73 616.75,-237.98 775.96,-310.43 266.77,-121.39 507.21,-239.98 772.13,-363.34 515.73,-240.17 1016.38,-472.32 1539.79,-711.76 515.48,-235.82 1022.71,-477.37 1545.49,-706.7l1169.01 -524.2c149.18,-64.23 305.19,-100.46 176.49,-296.61 -883.55,-1346.57 -1811.77,-2716.57 -2713.35,-4060.37 -202.42,-301.7 -594.09,-916.07 -793.23,-1187.7 -47.62,-64.96 -86.57,-96.54 -196.69,-80.87 -56.13,79.8 -340.25,1018.21 -403.2,1204.57 -136.02,402.62 -274.15,816.66 -409.12,1213.59z"/>
  <g id="_105553462550656">
   <g>
    <path class="fil2" d="M-3574.99 -1026.91c-12.17,5.79 -18.37,4.91 -28.49,13.24 -34.44,28.34 -27.73,51.06 -27.77,97.14 -0.04,54.39 0.08,108.78 0,163.17 -0.04,25.09 -2.02,52.74 11.96,70.7 11.34,14.57 28.18,28.03 54.8,29.51 27.12,1.5 58.65,0.2 86.24,0.18 29.18,-0.02 58.37,0.02 87.55,0 56.11,-0.03 116.99,2.16 172.49,-0.11 27.4,-1.13 43.31,-14.12 55.52,-28.88 14.33,-17.33 12.51,-45.06 12.55,-70.15 0.08,-54.39 -0.03,-108.78 0,-163.17 0.03,-45.92 6.63,-69.91 -27.09,-97.8 -11,-9.09 -16.21,-7.61 -29.18,-13.83 -26.68,-0.2 -58.66,0.22 -85.24,-1.09l-198.09 -0.01c-26.55,1.35 -58.51,0.87 -85.25,1.1z"/>
    <path class="fil3" d="M-3574.99 -1026.91c26.74,-0.23 58.7,0.25 85.25,-1.1 -0.05,-23.51 -0.01,-47.01 -0.01,-70.51 0.01,-25.05 -1.1,-40.12 8.78,-61.57 33.69,-73.16 146.83,-73.11 180.54,0 9.87,21.39 8.78,36.56 8.78,61.57 -0.01,23.5 0.02,47.01 0,70.52 26.58,1.31 58.56,0.89 85.24,1.09 -2.61,-23.99 1.24,-76.89 -1.15,-109.27 -2.32,-31.39 -15.42,-60.37 -30.23,-81.92 -26.06,-37.92 -80.79,-77.36 -152.94,-77.37 -99.85,-0.02 -175.93,74.86 -183.01,158.03 -3.03,35.56 2.41,76.39 -1.25,110.53z"/>
    <path class="fil3" d="M-3422.2 -821.45c-1.81,19.76 -6.01,41.35 -9.06,61.17 -1.75,11.3 -3.86,20.15 5.5,25.05 6.66,3.49 26.23,1.94 35.06,1.95 31.39,0.01 45.54,5.95 40.69,-27.03 -2.98,-20.22 -7.13,-41.08 -9.08,-61.12 23.02,-8.75 46.55,-40.62 36.88,-75.81 -12.76,-46.44 -71.56,-66.82 -112.31,-35.67 -6.05,4.63 -10.21,8.11 -14.94,14.73 -3.82,5.33 -7.44,12.91 -9.47,19.93 -10.3,35.62 13.24,67.98 36.73,76.8z"/>
   </g>
   <path class="fil4" d="M-3327.17 -797.47l-19.75 19.3c-6.61,6.55 -13.2,13.04 -20.02,19.59l-109.47 106.45c-1.67,1.62 -3.23,3 -5.1,4.74 -1.98,1.84 -3.04,3.67 -5.86,3.91 -3.14,-3.38 -2.92,-16.32 -3.37,-21.5 -0.93,-10.69 -5.1,-59.92 -6.32,-66.6 -40.39,-4.2 -63.82,-5.61 -103.37,-22.62 -76.15,-32.75 -122.61,-101.21 -138.67,-179.32 -0.89,-4.33 -3.54,-18.35 -3.13,-22.51 3.06,0.98 3.97,3.91 5.7,6.07 13.75,17.16 19.69,25.85 37.12,43.26 35.03,34.97 73.21,62.43 124.37,73.64 13.81,3.02 27.69,4.65 41.15,4.57 9.45,-0.05 28.01,-1.66 35.02,-5.21 0.83,-4.72 -0.58,-18.34 -0.81,-23.96l-2.25 -47.38c-0.3,-6.26 -2.08,-18.47 0.97,-23.11 4.78,0.46 38.33,27.01 44.63,31.84l129.16 98.84z"/>
  </g>
  <g id="_105553462529536">
   <path class="fil2" d="M-2931.52 -1043.84c-12.17,5.79 -18.37,4.91 -28.49,13.24 -34.44,28.34 -27.73,51.06 -27.77,97.14 -0.04,54.39 0.08,108.78 0,163.17 -0.04,25.09 -2.02,52.74 11.96,70.7 11.34,14.57 28.18,28.03 54.8,29.51 27.12,1.5 58.65,0.2 86.24,0.18 29.18,-0.02 58.37,0.02 87.55,0 56.11,-0.03 116.99,2.16 172.49,-0.11 27.4,-1.13 43.31,-14.12 55.52,-28.88 14.33,-17.33 12.51,-45.06 12.55,-70.15 0.08,-54.39 -0.03,-108.78 0,-163.17 0.03,-45.92 6.63,-69.91 -27.09,-97.8 -11,-9.09 -16.21,-7.61 -29.18,-13.83 -26.68,-0.2 -58.66,0.22 -85.24,-1.09l-198.09 -0.01c-26.55,1.35 -58.51,0.87 -85.25,1.1z"/>
   <path class="fil3" d="M-2845.96 -1143c0.7,-11.32 2.74,-21.6 8.46,-34.02 33.69,-73.16 146.83,-73.11 180.54,0 9.87,21.39 8.78,36.56 8.78,61.57 -0.01,23.5 0.02,47.01 0,70.52 26.58,1.31 58.56,0.89 85.24,1.09 -2.61,-23.99 1.24,-76.89 -1.15,-109.27 -2.32,-31.39 -15.42,-60.37 -30.23,-81.92 -26.06,-37.92 -80.79,-77.36 -152.94,-77.37 -99.85,-0.02 -175.93,74.86 -183.01,158.03 -0.32,3.74 -0.54,7.53 -0.69,11.37l85 0z"/>
   <path class="fil3" d="M-2778.73 -838.38c-1.81,19.76 -6.01,41.35 -9.06,61.17 -1.75,11.3 -3.86,20.15 5.5,25.05 6.66,3.49 26.23,1.94 35.06,1.95 31.39,0.01 45.54,5.95 40.69,-27.03 -2.98,-20.22 -7.13,-41.08 -9.08,-61.12 23.02,-8.75 46.55,-40.62 36.88,-75.81 -12.76,-46.44 -71.56,-66.82 -112.31,-35.67 -6.05,4.63 -10.21,8.11 -14.94,14.73 -3.82,5.33 -7.44,12.91 -9.47,19.93 -10.3,35.62 13.24,67.98 36.73,76.8z"/>
   <path class="fil4" d="M-2683.7 -814.4l-19.75 19.3c-6.61,6.55 -13.2,13.04 -20.02,19.59l-109.47 106.45c-1.67,1.62 -3.23,3 -5.1,4.74 -1.98,1.84 -3.04,3.67 -5.86,3.91 -3.14,-3.38 -2.92,-16.32 -3.37,-21.5 -0.93,-10.69 -5.1,-59.92 -6.32,-66.6 -40.39,-4.2 -63.82,-5.61 -103.37,-22.62 -76.15,-32.75 -122.61,-101.21 -138.67,-179.32 -0.89,-4.33 -3.54,-18.35 -3.13,-22.51 3.06,0.98 3.97,3.91 5.7,6.07 13.75,17.16 19.69,25.85 37.12,43.26 35.03,34.97 73.21,62.43 124.37,73.64 13.81,3.02 27.69,4.65 41.15,4.57 9.45,-0.05 28.01,-1.66 35.02,-5.21 0.83,-4.72 -0.58,-18.34 -0.81,-23.96l-2.25 -47.38c-0.3,-6.26 -2.08,-18.47 0.97,-23.11 4.78,0.46 38.33,27.01 44.63,31.84l129.16 98.84z"/>
  </g>
  <rect class="fil5 str0" x="-5748.89" y="-7137.4" width="677.33" height="677.33"/>
  <path class="fil6" d="M-7789.87 -6681.49c-9.41,-16.07 -181.29,-178.63 -211.73,-213.86 -26.54,-30.7 -18.95,-76.89 6.85,-102.58 26.78,-26.65 72.59,-33.08 103.84,-5.84 26.62,23.21 110.38,109.94 141.93,141.5 14.56,14.56 57.33,60.99 70.67,69.18 17.05,-9.79 177.51,-180.55 213.83,-211.71 26.34,-22.6 72.42,-23.31 102.62,6.85 26.27,26.24 33.27,73.12 5.75,103.79 -29.97,33.41 -202.03,198.39 -210.55,212.67 10.02,16.67 180.6,177.62 211.65,213.84 26.41,30.81 18.89,76.85 -6.85,102.61 -26.35,26.35 -72.87,33.23 -103.75,5.73 -31.93,-28.44 -106.61,-106.18 -141.94,-141.51 -13.45,-13.44 -59.04,-62.34 -70.76,-69.07 -10.86,6.62 -151.69,150.12 -178.14,176.57 -11.36,11.35 -22.92,24.68 -35.79,35.07 -73.09,59.01 -166.96,-46.19 -108.29,-110.59 29.12,-31.95 202.66,-198.99 210.66,-212.65zm-473.14 27.43c12.06,311.79 282.5,574.18 612.21,557.28 87.01,-4.46 163.66,-26.08 232.02,-59.98 66.37,-32.92 82.85,-50.07 131.13,-88.39 7,-5.55 11.92,-12.16 18.27,-18.24 57.91,-55.54 101.38,-119.95 132.99,-196.16 156.91,-378.38 -125.81,-825.66 -569.2,-806.61 -315.45,13.55 -570.27,279.73 -557.42,612.1z"/>
  <path class="fil7" d="M-7789.87 -6681.49c-8,13.66 -181.54,180.7 -210.66,212.65 -58.67,64.4 35.2,169.6 108.29,110.59 12.87,-10.39 24.43,-23.72 35.79,-35.07 26.45,-26.45 167.28,-169.95 178.14,-176.57 11.72,6.73 57.31,55.63 70.76,69.07 35.33,35.33 110.01,113.07 141.94,141.51 30.88,27.5 77.4,20.62 103.75,-5.73 25.74,-25.76 33.26,-71.8 6.85,-102.61 -31.05,-36.22 -201.63,-197.17 -211.65,-213.84 8.52,-14.28 180.58,-179.26 210.55,-212.67 27.52,-30.67 20.52,-77.55 -5.75,-103.79 -30.2,-30.16 -76.28,-29.45 -102.62,-6.85 -36.32,31.16 -196.78,201.92 -213.83,211.71 -13.34,-8.19 -56.11,-54.62 -70.67,-69.18 -31.55,-31.56 -115.31,-118.29 -141.93,-141.5 -31.25,-27.24 -77.06,-20.81 -103.84,5.84 -25.8,25.69 -33.39,71.88 -6.85,102.58 30.44,35.23 202.32,197.79 211.73,213.86z"/>
  <path class="fil8" d="M-417.09 -998.16l374.39 0 0 24.92 -374.38 0 -0.01 -24.92zm0 -55.74l0.55 -6.68 373.11 0.02 0.88 6.64 -0.15 18.29 -374.38 -0.01 -0.01 -18.26zm-0.1 -69.06l374.49 0.01 -0.24 24.92 -373.42 0 -0.83 -24.93zm-124.68 -79.32l0.01 456.92c0,15.03 19.32,34.15 34.27,34.15l177.75 -0.05 0.11 -37.92c-0.01,-14.88 -5.39,-5.87 -15.37,-28.13 -7.82,-17.44 -1.8,-27.29 -5.28,-39.91 -3.98,-14.46 -9.46,-19.54 -6.32,-38.74 3.81,-23.4 20.35,-34.47 23.82,-43.41 6.46,-16.66 7.42,-24.91 28.38,-38.66 12.95,-8.49 24.68,-5.67 34.84,-10.62 15.29,-7.46 36.58,-23.48 68.61,-5.34 7.07,4 6.01,5.88 14.53,7.4 55.59,9.94 47.44,36.11 59.94,54.2 4.09,5.93 11.51,7.52 18.38,26.97 9.6,27.17 -1.37,40.05 -7.34,52.76 -2.97,6.31 -1.16,12.85 -2.48,21.39 -5.69,36.88 -13.05,-8.72 -11.95,79.99l180.84 0.07c13.78,0 31.21,-20.52 31.21,-34.15l0 -456.92c0,-15.13 -16.67,-33 -31.79,-33l-560.36 0c-15.09,0 -31.8,17.93 -31.8,33z"/>
  <path class="fil9" d="M-259.95 -922.23c-23.33,-2.27 -36.77,5.87 -44.45,22.6 -7.46,16.22 3.45,11.42 -11.18,23.18 -5.82,4.68 -10.98,11.94 -13.15,21.53 -2.46,10.92 -0.26,19.21 4.51,27.66 8.56,15.14 0.96,9.2 1.52,26.23 0.94,28.48 27.11,31.63 32.06,36.3 4.34,4.09 1.93,9.32 13.47,19.24 23.48,20.18 39.48,-1.2 50.34,3.81 19.05,8.78 38.05,4.52 48.27,-12.27 10.86,-17.85 -1.52,-6.76 18.31,-16.1 15.84,-7.45 23.76,-24.13 18.08,-47.11 5.29,-8.6 16.82,-16.07 14.49,-34.25 -1.88,-14.61 -11.55,-24.78 -21.97,-28.79 0.05,-48.79 -43.46,-40.53 -47.78,-42.02 -11.41,-3.94 -23.17,-34.42 -62.52,-0.01z"/>
  <path class="fil10" d="M-302.17 -630.33c0,34.31 30.53,8.74 52.61,-4.11 27.96,-16.27 14.89,-17.99 59.22,8.85 36.94,22.35 37.91,17.89 37.91,-28.32 0,-30.48 0,-60.95 0,-91.43 -11.06,7.67 -4.36,13.57 -28,25.9 -12.77,6.65 -27.1,9.25 -43.13,5.45 -26.79,-6.37 -33.64,18.77 -78.27,-19.41l-0.34 103.07z"/>
  <g id="_105553462529760">
   <path class="fil2" d="M-2385.74 -1031.79c-12.17,5.79 -18.37,4.91 -28.49,13.24 -34.44,28.34 -27.73,51.06 -27.77,97.14 -0.04,54.39 0.08,108.78 0,163.17 -0.04,25.09 -2.02,52.74 11.96,70.7 11.34,14.57 28.18,28.03 54.8,29.51 27.12,1.5 58.65,0.2 86.24,0.18 29.18,-0.02 58.37,0.02 87.55,0 56.11,-0.03 116.99,2.16 172.49,-0.11 27.4,-1.13 43.31,-14.12 55.52,-28.88 14.33,-17.33 12.51,-45.06 12.55,-70.15 0.08,-54.39 -0.03,-108.78 0,-163.17 0.03,-45.92 6.63,-69.91 -27.09,-97.8 -11,-9.09 -16.21,-7.61 -29.18,-13.83 -26.68,-0.2 -58.66,0.22 -85.24,-1.09l-198.09 -0.01c-26.55,1.35 -58.51,0.87 -85.25,1.1z"/>
   <path class="fil3" d="M-2300.18 -1130.95c0.7,-11.32 2.74,-21.6 8.46,-34.02 33.69,-73.16 146.83,-73.11 180.54,0 9.87,21.39 8.78,36.56 8.78,61.57 -0.01,23.5 0.02,47.01 0,70.52 26.58,1.31 58.56,0.89 85.24,1.09 -2.61,-23.99 1.24,-76.89 -1.15,-109.27 -2.32,-31.39 -15.42,-60.37 -30.23,-81.92 -26.06,-37.92 -80.79,-77.36 -152.94,-77.37 -99.85,-0.02 -175.93,74.86 -183.01,158.03 -0.32,3.74 -0.54,7.53 -0.69,11.37l85 0z"/>
   <path class="fil3" d="M-2232.95 -826.33c-1.81,19.76 -6.01,41.35 -9.06,61.17 -1.75,11.3 -3.86,20.15 5.5,25.05 6.66,3.49 26.23,1.94 35.06,1.95 31.39,0.01 45.54,5.95 40.69,-27.03 -2.98,-20.22 -7.13,-41.08 -9.08,-61.12 23.02,-8.75 46.55,-40.62 36.88,-75.81 -12.76,-46.44 -71.56,-66.82 -112.31,-35.67 -6.05,4.63 -10.21,8.11 -14.94,14.73 -3.82,5.33 -7.44,12.91 -9.47,19.93 -10.3,35.62 13.24,67.98 36.73,76.8z"/>
  </g>
  <g id="_105553462535072">
   <path class="fil11" d="M-728.17 -1092.69c-15.29,2.46 -47.49,0.63 -64.61,0.63 -71.7,0.01 -65.99,6.2 -65.99,-65.24 0,-18.28 -1.76,-48.37 0.66,-65.23 11.77,12.81 126.42,128.07 129.94,129.84zm-163.25 388.22c-18.79,-31.5 -32.63,-63.57 -32,-110.35 0.55,-41.47 15.98,-82.65 35.25,-108.58 32.26,-43.41 76.18,-73.18 134.04,-80.79 28.69,-3.78 44.29,2.61 67.98,2.59 0.01,-30.6 -0.01,-61.2 0.04,-91.79 0.04,-25.55 -11.27,-29.66 -36.57,-54.98 -31.5,-31.52 -61.57,-61.66 -93.17,-93.11 -27.23,-27.09 -18.15,-23.19 -69.13,-23.19l-184.47 -0.04c-29.31,0.27 -47.66,16.19 -48.25,45.3 -3.05,150.92 0.26,310.15 -0.01,462.97 -0.12,68.83 57.86,52.75 132.99,52.76 22.87,0 73.72,2.7 93.3,-0.79z"/>
   <path class="fil4" d="M-749.09 -799.49c6.26,-8.92 48.21,-48.96 61.62,-62.44 5.67,-5.71 13.53,-16.46 27.17,-13.79 10.28,2.01 18.89,11.77 16.72,25.03 -1.87,11.36 -51.63,56.56 -60.9,65.83 -50.38,50.38 -41.8,51.69 -92.74,0.83 -5.13,-5.12 -16.4,-14.42 -17.9,-23.63 -2.13,-12.99 5.53,-22.26 16.04,-24.69 21.91,-5.07 35.24,25.53 49.99,32.86zm-5.49 -160.71c-74.97,13.5 -140.31,83.37 -123.21,176.01 13.47,73.07 84.12,137.23 174.85,121.33 73.29,-12.84 138.32,-83.54 122.44,-174.31 -12.83,-73.3 -83.83,-139.27 -174.08,-123.03z"/>
  </g>
  <g id="_105553462542048">
   <path class="fil2" d="M-1742.58 -1088.51c-8.56,4.07 -12.92,3.45 -20.03,9.31 -24.21,19.92 -19.5,35.89 -19.52,68.29 -0.03,38.24 0.05,76.48 -0.01,114.71 -0.02,17.64 -1.42,37.08 8.41,49.71 7.98,10.24 19.82,19.7 38.53,20.74 19.07,1.06 41.23,0.15 60.63,0.13 20.51,-0.01 41.03,0.01 61.55,0 39.45,-0.02 82.25,1.52 121.27,-0.08 19.26,-0.79 30.45,-9.92 39.03,-20.3 10.07,-12.19 8.8,-31.67 8.82,-49.32 0.06,-38.23 -0.02,-76.47 0,-114.71 0.02,-32.28 4.66,-49.15 -19.04,-68.75 -7.73,-6.4 -11.4,-5.36 -20.52,-9.73 -18.75,-0.14 -41.24,0.15 -59.93,-0.77l-139.26 -0.01c-18.66,0.96 -41.13,0.62 -59.93,0.78z"/>
   <path class="fil3" d="M-1682.43 -1158.22c0.49,-7.96 1.93,-15.19 5.95,-23.92 23.68,-51.43 103.22,-51.4 126.92,0 6.94,15.04 6.18,25.7 6.18,43.29 -0.01,16.52 0.01,33.05 0,49.57 18.68,0.92 41.17,0.63 59.92,0.77 -1.83,-16.87 0.87,-54.06 -0.81,-76.82 -1.63,-22.07 -10.84,-42.44 -21.25,-57.59 -18.32,-26.66 -56.8,-54.39 -107.52,-54.4 -70.2,-0.01 -123.69,52.63 -128.66,111.1 -0.23,2.63 -0.38,5.3 -0.49,8l59.76 0z"/>
   <path class="fil3" d="M-1635.17 -944.06c-1.27,13.89 -4.22,29.06 -6.37,43 -1.22,7.94 -2.71,14.16 3.87,17.61 4.69,2.45 18.44,1.37 24.65,1.37 22.07,0.01 32.01,4.18 28.6,-19 -2.09,-14.22 -5.01,-28.89 -6.38,-42.97 16.18,-6.15 32.73,-28.56 25.93,-53.3 -8.97,-32.64 -50.3,-46.97 -78.96,-25.07 -4.25,3.25 -7.17,5.7 -10.5,10.35 -2.68,3.75 -5.23,9.08 -6.65,14.01 -7.25,25.04 9.3,47.8 25.81,54z"/>
  </g>
  <path class="fil4" d="M-1557.16 -793.93l-18.02 17.62c-6.03,5.97 -12.05,11.9 -18.27,17.87l-99.9 97.14c-1.52,1.48 -2.94,2.74 -4.65,4.33 -1.81,1.68 -2.77,3.35 -5.35,3.57 -2.86,-3.09 -2.66,-14.9 -3.07,-19.62 -0.85,-9.76 -4.66,-54.68 -5.77,-60.78 -36.85,-3.83 -58.24,-5.12 -94.33,-20.64 -69.49,-29.89 -111.88,-92.35 -126.54,-163.63 -0.81,-3.95 -3.23,-16.75 -2.85,-20.54 2.79,0.89 3.62,3.56 5.2,5.53 12.54,15.67 17.96,23.59 33.87,39.48 31.97,31.91 66.81,56.96 113.49,67.19 12.61,2.77 25.27,4.25 37.56,4.18 8.62,-0.05 25.55,-1.52 31.95,-4.76 0.75,-4.31 -0.53,-16.73 -0.74,-21.86l-2.05 -43.24c-0.28,-5.71 -1.9,-16.85 0.89,-21.08 4.36,0.41 34.97,24.64 40.72,29.05l117.86 90.19z"/>
  <g id="_105553462535328">
   <path class="fil6" d="M-969.24 -1576.6c-1.92,-3.27 -37.01,-36.46 -43.22,-43.65 -5.42,-6.26 -3.87,-15.69 1.4,-20.93 5.46,-5.44 14.82,-6.76 21.19,-1.2 5.44,4.74 22.53,22.44 28.97,28.89 2.97,2.97 11.7,12.44 14.43,14.11 3.48,-1.99 36.23,-36.85 43.64,-43.21 5.38,-4.61 14.78,-4.75 20.95,1.4 5.36,5.36 6.79,14.93 1.17,21.19 -6.11,6.82 -41.23,40.49 -42.97,43.4 2.04,3.41 36.86,36.26 43.2,43.65 5.39,6.29 3.85,15.69 -1.4,20.95 -5.38,5.37 -14.87,6.78 -21.18,1.17 -6.52,-5.81 -21.76,-21.68 -28.97,-28.89 -2.74,-2.74 -12.05,-12.72 -14.44,-14.1 -2.22,1.35 -30.96,30.65 -36.36,36.04 -2.32,2.32 -4.68,5.04 -7.31,7.16 -14.92,12.05 -34.08,-9.43 -22.1,-22.57 5.94,-6.52 41.36,-40.62 43,-43.41zm-96.58 5.6c2.46,63.64 57.67,117.2 124.96,113.75 17.76,-0.91 33.41,-5.32 47.36,-12.24 13.55,-6.72 16.91,-10.22 26.77,-18.04 1.43,-1.14 2.43,-2.48 3.72,-3.73 11.82,-11.33 20.7,-24.48 27.15,-40.03 32.03,-77.24 -25.68,-168.53 -116.18,-164.64 -64.39,2.76 -116.4,57.09 -113.78,124.93z"/>
   <path class="fil7" d="M-969.24 -1576.6c-1.64,2.79 -37.06,36.89 -43,43.41 -11.98,13.14 7.18,34.62 22.1,22.57 2.63,-2.12 4.99,-4.84 7.31,-7.16 5.4,-5.39 34.14,-34.69 36.36,-36.04 2.39,1.38 11.7,11.36 14.44,14.1 7.21,7.21 22.45,23.08 28.97,28.89 6.31,5.61 15.8,4.2 21.18,-1.17 5.25,-5.26 6.79,-14.66 1.4,-20.95 -6.34,-7.39 -41.16,-40.24 -43.2,-43.65 1.74,-2.91 36.86,-36.58 42.97,-43.4 5.62,-6.26 4.19,-15.83 -1.17,-21.19 -6.17,-6.15 -15.57,-6.01 -20.95,-1.4 -7.41,6.36 -40.16,41.22 -43.64,43.21 -2.73,-1.67 -11.46,-11.14 -14.43,-14.11 -6.44,-6.45 -23.53,-24.15 -28.97,-28.89 -6.37,-5.56 -15.73,-4.24 -21.19,1.2 -5.27,5.24 -6.82,14.67 -1.4,20.93 6.21,7.19 41.3,40.38 43.22,43.65z"/>
  </g>
  <g id="_105553462504256">
   <path class="fil3" d="M-6565.18 -1022.2c-12.17,5.79 -18.37,4.91 -28.49,13.24 -34.44,28.34 -27.73,51.06 -27.77,97.14 -0.04,54.39 0.08,108.78 0,163.17 -0.04,25.09 -2.02,52.74 11.96,70.7 11.34,14.57 28.18,28.03 54.8,29.51 27.12,1.5 58.65,0.2 86.24,0.18 29.18,-0.02 58.37,0.02 87.55,0 56.11,-0.03 116.99,2.16 172.49,-0.11 27.4,-1.13 43.31,-14.12 55.52,-28.88 14.33,-17.33 12.51,-45.06 12.55,-70.15 0.08,-54.39 -0.03,-108.78 0,-163.17 0.03,-45.92 6.63,-69.91 -27.09,-97.8 -11,-9.09 -16.21,-7.61 -29.18,-13.83 -26.68,-0.2 -58.66,0.22 -85.24,-1.09l-198.09 -0.01c-26.55,1.35 -58.51,0.87 -85.25,1.1z"/>
   <path class="fil3" d="M-6565.18 -1022.2c26.74,-0.23 58.7,0.25 85.25,-1.1 -0.05,-23.51 -0.01,-47.01 -0.01,-70.51 0.01,-25.05 -1.1,-40.12 8.78,-61.57 33.69,-73.16 146.83,-73.11 180.54,0 9.87,21.39 8.78,36.56 8.78,61.57 -0.01,23.5 0.02,47.01 0,70.52 26.58,1.31 58.56,0.89 85.24,1.09 -2.61,-23.99 1.24,-76.89 -1.15,-109.27 -2.32,-31.39 -15.42,-60.37 -30.23,-81.92 -26.06,-37.92 -80.79,-77.36 -152.94,-77.37 -99.85,-0.02 -175.93,74.86 -183.01,158.03 -3.03,35.56 2.41,76.39 -1.25,110.53z"/>
   <path class="fil0" d="M-6412.39 -816.74c-1.81,19.76 -6.01,41.35 -9.06,61.17 -1.75,11.3 -3.86,20.15 5.5,25.05 6.66,3.49 26.23,1.94 35.06,1.95 31.39,0.01 45.54,5.95 40.69,-27.03 -2.98,-20.22 -7.13,-41.08 -9.08,-61.12 23.02,-8.75 46.55,-40.62 36.88,-75.81 -12.76,-46.44 -71.56,-66.82 -112.31,-35.67 -6.05,4.63 -10.21,8.11 -14.94,14.73 -3.82,5.33 -7.44,12.91 -9.47,19.93 -10.3,35.62 13.24,67.98 36.73,76.8z"/>
  </g>
  <g id="_105553462505792">
   <path class="fil3" d="M-4269.82 -1040.81c-12.17,5.79 -18.37,4.91 -28.49,13.24 -34.44,28.34 -27.73,51.06 -27.77,97.14 -0.04,54.39 0.08,108.78 0,163.17 -0.04,25.09 -2.02,52.74 11.96,70.7 11.34,14.57 28.18,28.03 54.8,29.51 27.12,1.5 58.65,0.2 86.24,0.18 29.18,-0.02 58.37,0.02 87.55,0 56.11,-0.03 116.99,2.16 172.49,-0.11 27.4,-1.13 43.31,-14.12 55.52,-28.88 14.33,-17.33 12.51,-45.06 12.55,-70.15 0.08,-54.39 -0.03,-108.78 0,-163.17 0.03,-45.92 6.63,-69.91 -27.09,-97.8 -11,-9.09 -16.21,-7.61 -29.18,-13.83 -26.68,-0.2 -58.66,0.22 -85.24,-1.09l-198.09 -0.01c-26.55,1.35 -58.51,0.87 -85.25,1.1z"/>
   <path class="fil3" d="M-4269.82 -1040.81c26.74,-0.23 58.7,0.25 85.25,-1.1 -0.05,-23.51 -0.01,-47.01 -0.01,-70.51 0.01,-25.05 -1.1,-40.12 8.78,-61.57 33.69,-73.16 146.83,-73.11 180.54,0 9.87,21.39 8.78,36.56 8.78,61.57 -0.01,23.5 0.02,47.01 0,70.52 26.58,1.31 58.56,0.89 85.24,1.09 -2.61,-23.99 1.24,-76.89 -1.15,-109.27 -2.32,-31.39 -15.42,-60.37 -30.23,-81.92 -26.06,-37.92 -80.79,-77.36 -152.94,-77.37 -99.85,-0.02 -175.93,74.86 -183.01,158.03 -3.03,35.56 2.41,76.39 -1.25,110.53z"/>
   <path class="fil0" d="M-4117.03 -835.35c-1.81,19.76 -6.01,41.35 -9.06,61.17 -1.75,11.3 -3.86,20.15 5.5,25.05 6.66,3.49 26.23,1.94 35.06,1.95 31.39,0.01 45.54,5.95 40.69,-27.03 -2.98,-20.22 -7.13,-41.08 -9.08,-61.12 23.02,-8.75 46.55,-40.62 36.88,-75.81 -12.76,-46.44 -71.56,-66.82 -112.31,-35.67 -6.05,4.63 -10.21,8.11 -14.94,14.73 -3.82,5.33 -7.44,12.91 -9.47,19.93 -10.3,35.62 13.24,67.98 36.73,76.8z"/>
   <path class="fil4" d="M-4022 -811.37l-19.75 19.3c-6.61,6.55 -13.2,13.04 -20.02,19.59l-109.47 106.45c-1.67,1.62 -3.23,3 -5.1,4.74 -1.98,1.84 -3.04,3.67 -5.86,3.91 -3.14,-3.38 -2.92,-16.32 -3.37,-21.5 -0.93,-10.69 -5.1,-59.92 -6.32,-66.6 -40.39,-4.2 -63.82,-5.61 -103.37,-22.62 -76.15,-32.75 -122.61,-101.21 -138.67,-179.32 -0.89,-4.33 -3.54,-18.35 -3.13,-22.51 3.06,0.98 3.97,3.91 5.7,6.07 13.75,17.16 19.69,25.85 37.12,43.26 35.03,34.97 73.21,62.43 124.37,73.64 13.81,3.02 27.69,4.65 41.15,4.57 9.45,-0.05 28.01,-1.66 35.02,-5.21 0.83,-4.72 -0.58,-18.34 -0.81,-23.96l-2.25 -47.38c-0.3,-6.26 -2.08,-18.47 0.97,-23.11 4.78,0.46 38.33,27.01 44.63,31.84l129.16 98.84z"/>
   <g>
    <path class="fil12" d="M-4000.87 -1102.3c29.31,-10.08 43.94,30.39 16.23,39.36 -29.43,9.52 -45.01,-29.46 -16.23,-39.36zm-58.58 -98.05c1.2,-53.65 75.68,-78.98 117.73,-45.44 15.68,12.51 33.09,35.97 20.53,67.17 -7.88,19.57 -28.69,36.15 -54.47,39.93l-0.01 24.49 -34.5 -0.06 0.33 -53.73c17.71,0.37 36.1,0.33 46.39,-9.2 11.49,-10.63 11.98,-27.27 3.45,-40.47 -11.67,-18.04 -62.42,-21.95 -62.91,22.41l-36.54 -5.1zm54.61 -112.16c-85.82,10.04 -144.4,86.42 -134.91,168.41 9.04,78.15 79.06,144.34 168.92,134.3 77.43,-8.64 144.22,-79.75 133.97,-168.4 -8.95,-77.44 -78.77,-144.74 -167.98,-134.31z"/>
    <path class="fil13" d="M-4059.45 -1200.35l36.54 5.1c0.49,-44.36 51.24,-40.45 62.91,-22.41 8.53,13.2 8.04,29.84 -3.45,40.47 -10.29,9.53 -28.68,9.57 -46.39,9.2l-0.33 53.73 34.5 0.06 0.01 -24.49c25.78,-3.78 46.59,-20.36 54.47,-39.93 12.56,-31.2 -4.85,-54.66 -20.53,-67.17 -42.05,-33.54 -116.53,-8.21 -117.73,45.44z"/>
    <path class="fil13" d="M-4000.87 -1102.3c-28.78,9.9 -13.2,48.88 16.23,39.36 27.71,-8.97 13.08,-49.44 -16.23,-39.36z"/>
   </g>
  </g>
  <path class="fil3" d="M-5536.88 -1029.23c-12.17,5.79 -18.37,4.91 -28.49,13.24 -34.44,28.34 -27.73,51.06 -27.77,97.14 -0.04,54.39 0.08,108.78 0,163.17 -0.04,25.09 -2.02,52.74 11.96,70.7 11.34,14.57 28.18,28.03 54.8,29.51 27.12,1.5 58.65,0.2 86.24,0.18 29.18,-0.02 58.37,0.02 87.55,0 56.11,-0.03 116.99,2.16 172.49,-0.11 27.4,-1.13 43.31,-14.12 55.52,-28.88 14.33,-17.33 12.51,-45.06 12.55,-70.15 0.08,-54.39 -0.03,-108.78 0,-163.17 0.03,-45.92 6.63,-69.91 -27.09,-97.8 -11,-9.09 -16.21,-7.61 -29.18,-13.83 -26.68,-0.2 -58.66,0.22 -85.24,-1.09l-198.09 -0.01c-26.55,1.35 -58.51,0.87 -85.25,1.1z"/>
  <path class="fil3" d="M-5536.88 -1029.23c26.74,-0.23 58.7,0.25 85.25,-1.1 -0.05,-23.51 -0.01,-47.01 -0.01,-70.51 0.01,-25.05 -1.1,-40.12 8.78,-61.57 33.69,-73.16 146.83,-73.11 180.54,0 9.87,21.39 8.78,36.56 8.78,61.57 -0.01,23.5 0.02,47.01 0,70.52 26.58,1.31 58.56,0.89 85.24,1.09 -2.61,-23.99 1.24,-76.89 -1.15,-109.27 -2.32,-31.39 -15.42,-60.37 -30.23,-81.92 -26.06,-37.92 -80.79,-77.36 -152.94,-77.37 -99.85,-0.02 -175.93,74.86 -183.01,158.03 -3.03,35.56 2.41,76.39 -1.25,110.53z"/>
  <path class="fil0" d="M-5384.09 -823.77c-1.81,19.76 -6.01,41.35 -9.06,61.17 -1.75,11.3 -3.86,20.15 5.5,25.05 6.66,3.49 26.23,1.94 35.06,1.95 31.39,0.01 45.54,5.95 40.69,-27.03 -2.98,-20.22 -7.13,-41.08 -9.08,-61.12 23.02,-8.75 46.55,-40.62 36.88,-75.81 -12.76,-46.44 -71.56,-66.82 -112.31,-35.67 -6.05,4.63 -10.21,8.11 -14.94,14.73 -3.82,5.33 -7.44,12.91 -9.47,19.93 -10.3,35.62 13.24,67.98 36.73,76.8z"/>
  <g id="_105553462500864">
   <path class="fil12" d="M-5250.99 -735.12c29.31,-10.08 43.94,30.39 16.23,39.36 -29.43,9.52 -45.01,-29.46 -16.23,-39.36zm-58.58 -98.05c1.2,-53.65 75.68,-78.98 117.73,-45.44 15.68,12.51 33.09,35.97 20.53,67.17 -7.88,19.57 -28.69,36.15 -54.47,39.93l-0.01 24.49 -34.5 -0.06 0.33 -53.73c17.71,0.37 36.1,0.33 46.39,-9.2 11.49,-10.63 11.98,-27.27 3.45,-40.47 -11.67,-18.04 -62.42,-21.95 -62.91,22.41l-36.54 -5.1zm54.61 -112.16c-85.82,10.04 -144.4,86.42 -134.91,168.41 9.04,78.15 79.06,144.34 168.92,134.3 77.43,-8.64 144.22,-79.75 133.97,-168.4 -8.95,-77.44 -78.77,-144.74 -167.98,-134.31z"/>
   <path class="fil13" d="M-5309.57 -833.17l36.54 5.1c0.49,-44.36 51.24,-40.45 62.91,-22.41 8.53,13.2 8.04,29.84 -3.45,40.47 -10.29,9.53 -28.68,9.57 -46.39,9.2l-0.33 53.73 34.5 0.06 0.01 -24.49c25.78,-3.78 46.59,-20.36 54.47,-39.93 12.56,-31.2 -4.85,-54.66 -20.53,-67.17 -42.05,-33.54 -116.53,-8.21 -117.73,45.44z"/>
   <path class="fil13" d="M-5250.99 -735.12c-28.78,9.9 -13.2,48.88 16.23,39.36 27.71,-8.97 13.08,-49.44 -16.23,-39.36z"/>
  </g>
  <path class="fil3" d="M-673.32 -40.22c-11.76,5.59 -17.75,4.74 -27.52,12.78 -33.25,27.36 -26.77,49.3 -26.81,93.79 -0.04,52.52 0.08,105.03 0,157.54 -0.04,24.23 -1.95,50.93 11.55,68.27 10.95,14.07 27.21,27.06 52.91,28.49 26.19,1.46 56.63,0.2 83.26,0.18 28.18,-0.02 56.36,0.01 84.54,0 54.18,-0.03 112.96,2.09 166.55,-0.11 26.45,-1.09 41.82,-13.63 53.6,-27.88 13.84,-16.74 12.08,-43.51 12.12,-67.73 0.07,-52.52 -0.03,-105.03 0,-157.55 0.03,-44.34 6.4,-67.5 -26.16,-94.42 -10.61,-8.79 -15.65,-7.36 -28.17,-13.36 -25.76,-0.19 -56.64,0.21 -82.31,-1.06l-191.25 -0.01c-25.64,1.31 -56.5,0.85 -82.31,1.07z"/>
  <path class="fil3" d="M-673.32 -40.22c25.81,-0.22 56.67,0.24 82.31,-1.07 -0.05,-22.69 -0.01,-45.39 -0.01,-68.08 0,-24.18 -1.07,-38.73 8.47,-59.45 32.53,-70.63 141.77,-70.58 174.32,0 9.53,20.66 8.48,35.31 8.47,59.45 0,22.7 0.02,45.39 0,68.09 25.67,1.27 56.55,0.87 82.31,1.06 -2.52,-23.17 1.19,-74.24 -1.12,-105.5 -2.24,-30.32 -14.88,-58.29 -29.18,-79.11 -25.16,-36.6 -78,-74.68 -147.66,-74.7 -96.42,-0.02 -169.88,72.29 -176.71,152.58 -2.92,34.34 2.33,73.76 -1.2,106.73z"/>
  <path class="fil0" d="M-525.8 158.16c-1.75,19.07 -5.8,39.92 -8.75,59.06 -1.69,10.91 -3.73,19.45 5.31,24.18 6.43,3.37 25.32,1.88 33.85,1.88 30.31,0.02 43.97,5.75 39.28,-26.09 -2.87,-19.53 -6.88,-39.67 -8.76,-59.02 22.22,-8.45 44.95,-39.21 35.61,-73.2 -12.32,-44.83 -69.09,-64.51 -108.44,-34.43 -5.84,4.46 -9.85,7.83 -14.43,14.22 -3.68,5.15 -7.17,12.47 -9.13,19.24 -9.95,34.39 12.77,65.64 35.46,74.16z"/>
  <path class="fil4" d="M-434.05 181.31l-19.07 18.64c-6.38,6.31 -12.75,12.59 -19.33,18.91l-105.7 102.77c-1.61,1.57 -3.11,2.91 -4.92,4.58 -1.91,1.79 -2.93,3.55 -5.66,3.78 -3.03,-3.26 -2.82,-15.76 -3.25,-20.75 -0.9,-10.33 -4.93,-57.86 -6.11,-64.31 -38.99,-4.06 -61.62,-5.42 -99.8,-21.85 -73.52,-31.62 -118.38,-97.71 -133.89,-173.13 -0.86,-4.18 -3.42,-17.72 -3.02,-21.73 2.95,0.94 3.83,3.77 5.5,5.86 13.27,16.57 19.01,24.95 35.84,41.76 33.83,33.77 70.69,60.28 120.09,71.1 13.33,2.92 26.73,4.49 39.73,4.42 9.12,-0.05 27.04,-1.6 33.81,-5.03 0.8,-4.56 -0.56,-17.71 -0.78,-23.13l-2.17 -45.76c-0.29,-6.04 -2.01,-17.83 0.93,-22.31 4.62,0.44 37.01,26.08 43.1,30.75l124.7 95.43z"/>
  <g id="_105553462490816">
   <path class="fil6" d="M-1510.7 -932.39c-77.75,4.55 -141.97,70.41 -137.28,153.7 4.36,77.56 70.73,141.77 153.81,137.06 77.31,-4.39 141.61,-70.56 136.95,-153.68 -4.33,-77.28 -70.71,-141.93 -153.48,-137.08z"/>
   <path class="fil14" d="M-1523.25 -861.81c-5.63,1.79 -5.07,6.29 -4.7,12.79 0.33,5.67 0.63,11.4 0.94,17.08 0.63,11.56 1.26,23.13 1.9,34.72 0.31,5.68 0.63,11.34 0.93,17.05 0.79,14.89 4.46,11.94 24.43,11.94 21.28,0 17.92,2.85 19.95,-34.13 0.64,-11.69 2.83,-41.46 2.83,-51.79 0,-6.65 -3.72,-8.06 -10.26,-8.03 -5.74,0.03 -32.88,-0.62 -36.02,0.37z"/>
   <path class="fil14" d="M-1508.09 -756.97c-35.95,8.18 -23.09,60.19 11.47,52.71 12.7,-2.76 24.01,-16.09 20.34,-32.31 -2.89,-12.74 -15.65,-24.08 -31.81,-20.4z"/>
  </g>
  <path class="fil3" d="M-6042.27 -1036.56c-12.17,5.79 -18.37,4.91 -28.49,13.24 -34.44,28.34 -27.73,51.06 -27.77,97.14 -0.04,54.39 0.08,108.78 0,163.17 -0.04,25.09 -2.02,52.74 11.96,70.7 11.34,14.57 28.18,28.03 54.8,29.51 27.12,1.5 58.65,0.2 86.24,0.18 29.18,-0.02 58.37,0.02 87.55,0 56.11,-0.03 116.99,2.16 172.49,-0.11 27.4,-1.13 43.31,-14.12 55.52,-28.88 14.33,-17.33 12.51,-45.06 12.55,-70.15 0.08,-54.39 -0.03,-108.78 0,-163.17 0.03,-45.92 6.63,-69.91 -27.09,-97.8 -11,-9.09 -16.21,-7.61 -29.18,-13.83 -26.68,-0.2 -58.66,0.22 -85.24,-1.09l-198.09 -0.01c-26.55,1.35 -58.51,0.87 -85.25,1.1z"/>
  <path class="fil3" d="M-6042.27 -1036.56c26.74,-0.23 58.7,0.25 85.25,-1.1 -0.05,-23.51 -0.01,-47.01 -0.01,-70.51 0.01,-25.05 -1.1,-40.12 8.78,-61.57 33.69,-73.16 146.83,-73.11 180.54,0 9.87,21.39 8.78,36.56 8.78,61.57 -0.01,23.5 0.02,47.01 0,70.52 26.58,1.31 58.56,0.89 85.24,1.09 -2.61,-23.99 1.24,-76.89 -1.15,-109.27 -2.32,-31.39 -15.42,-60.37 -30.23,-81.92 -26.06,-37.92 -80.79,-77.36 -152.94,-77.37 -99.85,-0.02 -175.93,74.86 -183.01,158.03 -3.03,35.56 2.41,76.39 -1.25,110.53z"/>
  <path class="fil0" d="M-5889.48 -831.1c-1.81,19.76 -6.01,41.35 -9.06,61.17 -1.75,11.3 -3.86,20.15 5.5,25.05 6.66,3.49 26.23,1.94 35.06,1.95 31.39,0.01 45.54,5.95 40.69,-27.03 -2.98,-20.22 -7.13,-41.08 -9.08,-61.12 23.02,-8.75 46.55,-40.62 36.88,-75.81 -12.76,-46.44 -71.56,-66.82 -112.31,-35.67 -6.05,4.63 -10.21,8.11 -14.94,14.73 -3.82,5.33 -7.44,12.91 -9.47,19.93 -10.3,35.62 13.24,67.98 36.73,76.8z"/>
  <g id="_105553462491680">
   <path class="fil6" d="M-5720.86 -948.25c-80.53,4.71 -147.04,72.93 -142.19,159.19 4.52,80.32 73.26,146.83 159.31,141.95 80.07,-4.54 146.66,-73.08 141.84,-159.17 -4.49,-80.04 -73.24,-146.99 -158.96,-141.97z"/>
   <path class="fil14" d="M-5733.86 -875.15c-5.83,1.85 -5.25,6.51 -4.87,13.25 0.34,5.87 0.65,11.8 0.97,17.69 0.65,11.97 1.31,23.96 1.97,35.96 0.32,5.88 0.65,11.74 0.96,17.65 0.82,15.42 4.62,12.37 25.3,12.37 22.05,0 18.57,2.95 20.67,-35.35 0.66,-12.11 2.93,-42.94 2.93,-53.64 -0.01,-6.89 -3.85,-8.34 -10.63,-8.31 -5.94,0.02 -34.05,-0.65 -37.3,0.38z"/>
   <path class="fil14" d="M-5718.16 -766.57c-37.24,8.47 -23.91,62.34 11.87,54.59 13.16,-2.85 24.87,-16.66 21.07,-33.46 -2.98,-13.19 -16.21,-24.94 -32.94,-21.13z"/>
  </g>
  <g id="_105553462461408">
   <g>
    <g>
     <path class="fil15" d="M1356.02 -1129.32l-238.43 149.02 -238.43 -149.02 0 -59.61 238.43 149.02 238.43 -149.02 0 59.61zm0 -119.22l-476.86 0c-33.08,0 -59.61,26.53 -59.61,59.61l0 357.64c0.01,32.9 26.71,59.6 59.62,59.6l476.85 0.01c32.91,-0.01 59.61,-26.71 59.61,-59.62l0 -357.64c0,-33.08 -26.82,-59.61 -59.61,-59.61l0 0.01z"/>
    </g>
    <path class="fil16" d="M982.12 -793.58l18.67 18.25c6.25,6.18 12.49,12.33 18.93,18.52l103.5 100.64c1.58,1.53 3.05,2.84 4.82,4.48 1.88,1.75 2.87,3.47 5.54,3.7 2.97,-3.2 2.76,-15.44 3.19,-20.32 0.88,-10.11 4.82,-56.66 5.98,-62.97 38.17,-3.98 60.33,-5.31 97.73,-21.39 71.99,-30.97 115.91,-95.69 131.1,-169.53 0.84,-4.1 3.34,-17.36 2.95,-21.29 -2.89,0.92 -3.75,3.7 -5.38,5.74 -13,16.23 -18.61,24.44 -35.1,40.9 -33.12,33.06 -69.21,59.02 -117.58,69.62 -13.06,2.86 -26.18,4.4 -38.91,4.33 -8.93,-0.05 -26.48,-1.58 -33.1,-4.93 -0.79,-4.47 0.54,-17.34 0.76,-22.65l2.12 -44.81c0.29,-5.91 1.97,-17.46 -0.91,-21.84 -4.52,0.43 -36.24,25.54 -42.2,30.11l-122.11 93.44z"/>
   </g>
   <g id="_105553462467904">
    <path class="fil6" d="M1272.61 -1269.98c-80.53,4.71 -147.04,72.93 -142.19,159.19 4.52,80.32 73.26,146.83 159.31,141.95 80.07,-4.54 146.66,-73.08 141.84,-159.17 -4.49,-80.04 -73.24,-146.99 -158.96,-141.97z"/>
    <path class="fil14" d="M1259.61 -1196.88c-5.83,1.85 -5.25,6.51 -4.87,13.25 0.34,5.87 0.65,11.8 0.97,17.69 0.65,11.97 1.31,23.96 1.97,35.96 0.32,5.88 0.65,11.74 0.96,17.65 0.82,15.42 4.62,12.37 25.3,12.37 22.05,0 18.57,2.95 20.67,-35.35 0.66,-12.11 2.93,-42.94 2.93,-53.64 -0.01,-6.89 -3.85,-8.34 -10.63,-8.31 -5.94,0.02 -34.05,-0.65 -37.3,0.38z"/>
    <path class="fil14" d="M1275.31 -1088.3c-37.24,8.47 -23.91,62.34 11.87,54.59 13.16,-2.85 24.87,-16.66 21.07,-33.46 -2.98,-13.19 -16.21,-24.94 -32.94,-21.13z"/>
   </g>
  </g>
  <g>
   <path class="fil17" d="M1651.61 -922.83l156.62 0 0 28.3 -156.62 0 0 -28.3zm0 -58.5l279.28 0 0 18.57c9.38,4.81 15.63,13.17 21.8,15.23 5.15,1.71 56.99,-7.8 56.94,48.42 6.47,2.4 12.7,6.74 17.5,12.73l0 -327.06c0,-19.17 -20.45,-39.63 -39.63,-39.63l-392.5 0c-19.18,0 -39.63,20.46 -39.63,39.63l0 392.51c0,19.17 20.45,39.63 39.63,39.63l219.83 0c-6.14,-5.75 -10.98,-14.03 -11.41,-26.6 -0.66,-19.62 8.39,-12.77 -1.81,-30.21 -5.69,-9.74 -8.31,-19.3 -5.37,-31.88 2.58,-11.05 8.73,-19.41 15.66,-24.8 17.44,-13.56 4.44,-8.02 13.32,-26.72 9.16,-19.27 25.18,-28.65 52.97,-26.03 2.39,-2.02 4.69,-3.84 6.92,-5.49l-233.5 0 0 -28.3zm0 -58.5l279.28 0 0 28.31 -279.28 0 0 -28.31zm279.28 -30.12l-279.28 0c-1.46,-1.82 -1.75,2.5 -2.12,-5.73l0.29 -23.83 -9.49 -0.63c91.21,0 203.74,-2.07 292.43,0.63l0.42 23.82c-0.54,9.05 -0.76,3.6 -2.25,5.74zm-281.37 -88.55l283.26 -0.44 0.07 29.87 -277.47 0.31 -5.73 -0.31 -0.13 -29.43zm370.16 358.48c4.59,-6.39 7.45,-13.74 7.45,-20.91l0 -16.4c-3.08,3.87 -6.32,7.28 -8.59,10.85 2.53,9.89 2.79,18.77 1.14,26.46z"/>
   <path class="fil9" d="M1885.8 -927.69c-22.14,-2.08 -34.89,5.39 -42.19,20.74 -7.08,14.89 3.28,10.48 -10.61,21.28 -5.52,4.29 -10.42,10.95 -12.48,19.76 -2.33,10.01 -0.25,17.63 4.29,25.38 8.12,13.9 0.9,8.44 1.44,24.07 0.88,26.14 25.72,29.03 30.42,33.32 4.12,3.75 1.84,8.55 12.79,17.65 22.29,18.52 37.47,-1.1 47.78,3.5 18.08,8.06 36.12,4.15 45.81,-11.26 10.31,-16.38 -1.44,-6.2 17.38,-14.77 15.03,-6.85 22.55,-22.15 17.16,-43.24 5.03,-7.89 15.97,-14.75 13.75,-31.44 -1.78,-13.4 -10.95,-22.74 -20.84,-26.41 0.04,-44.79 -41.26,-37.2 -45.36,-38.57 -10.83,-3.62 -21.99,-31.59 -59.34,-0.01z"/>
   <path class="fil9" d="M1845.73 -659.8c0,31.49 28.98,8.02 49.93,-3.77 26.54,-14.93 14.14,-16.51 56.22,8.12 35.06,20.52 35.98,16.42 35.97,-25.99 0,-27.97 0,-55.94 0,-83.9 -10.49,7.03 -4.13,12.44 -26.57,23.76 -12.12,6.11 -25.72,8.49 -40.93,5 -25.44,-5.84 -31.93,17.23 -74.3,-17.81l-0.32 94.59z"/>
  </g>
  <g>
   <g>
    <path class="fil15" d="M695.63 -1124.8l-238.43 149.02 -238.43 -149.02 0 -59.61 238.43 149.02 238.43 -149.02 0 59.61zm0 -119.22l-476.86 0c-33.08,0 -59.61,26.53 -59.61,59.61l0 357.64c0.01,32.9 26.71,59.6 59.62,59.6l476.85 0.01c32.91,-0.01 59.61,-26.71 59.61,-59.62l0 -357.64c0,-33.08 -26.82,-59.61 -59.61,-59.61l0 0.01z"/>
   </g>
   <path class="fil16" d="M321.73 -789.06l18.67 18.25c6.25,6.18 12.49,12.33 18.93,18.52l103.5 100.64c1.58,1.53 3.05,2.84 4.82,4.48 1.88,1.75 2.87,3.47 5.54,3.7 2.97,-3.2 2.76,-15.44 3.19,-20.32 0.88,-10.11 4.82,-56.66 5.98,-62.97 38.17,-3.98 60.33,-5.31 97.73,-21.39 71.99,-30.97 115.91,-95.69 131.1,-169.53 0.84,-4.1 3.34,-17.36 2.95,-21.29 -2.89,0.92 -3.75,3.7 -5.38,5.74 -13,16.23 -18.61,24.44 -35.1,40.9 -33.12,33.06 -69.21,59.02 -117.58,69.62 -13.06,2.86 -26.18,4.4 -38.91,4.33 -8.93,-0.05 -26.48,-1.58 -33.1,-4.93 -0.79,-4.47 0.54,-17.34 0.76,-22.65l2.12 -44.81c0.29,-5.91 1.97,-17.46 -0.91,-21.84 -4.52,0.43 -36.24,25.54 -42.2,30.11l-122.11 93.44z"/>
  </g>
  <g>
   <path class="fil11" d="M-4487.37 3072.91c-15.29,2.46 -47.49,0.63 -64.61,0.63 -71.7,0.01 -65.99,6.2 -65.99,-65.24 0,-18.28 -1.76,-48.37 0.66,-65.23 11.77,12.81 126.42,128.07 129.94,129.84zm-163.25 388.22c-18.79,-31.5 -32.63,-63.57 -32,-110.35 0.55,-41.47 15.98,-82.65 35.25,-108.58 32.26,-43.41 76.18,-73.18 134.04,-80.79 28.69,-3.78 44.29,2.61 67.98,2.59 0.01,-30.6 -0.01,-61.2 0.04,-91.79 0.04,-25.55 -11.27,-29.66 -36.57,-54.98 -31.5,-31.52 -61.57,-61.66 -93.17,-93.11 -27.23,-27.09 -18.15,-23.19 -69.13,-23.19l-184.47 -0.04c-29.31,0.27 -47.66,16.19 -48.25,45.3 -3.05,150.92 0.26,310.15 -0.01,462.97 -0.12,68.83 57.86,52.75 132.99,52.76 22.87,0 73.72,2.7 93.3,-0.79z"/>
   <path class="fil4" d="M-4508.29 3366.11c6.26,-8.92 48.21,-48.96 61.62,-62.44 5.67,-5.71 13.53,-16.46 27.17,-13.79 10.28,2.01 18.89,11.77 16.72,25.03 -1.87,11.36 -51.63,56.56 -60.9,65.83 -50.38,50.38 -41.8,51.69 -92.74,0.83 -5.13,-5.12 -16.4,-14.42 -17.9,-23.63 -2.13,-12.99 5.53,-22.26 16.04,-24.69 21.91,-5.07 35.24,25.53 49.99,32.86zm-5.49 -160.71c-74.97,13.5 -140.31,83.37 -123.21,176.01 13.47,73.07 84.12,137.23 174.85,121.33 73.29,-12.84 138.32,-83.54 122.44,-174.31 -12.83,-73.3 -83.83,-139.27 -174.08,-123.03z"/>
  </g>
  <path class="fil4" d="M-18348.02 -9983.96c113.26,-161.39 872.15,-885.81 1114.79,-1129.7 102.7,-103.21 244.75,-297.77 491.57,-249.44 185.98,36.41 341.9,213.01 302.54,452.79 -33.76,205.57 -934.13,1023.4 -1101.88,1191.17 -911.39,911.49 -756.25,935.19 -1677.97,14.93 -92.75,-92.58 -296.59,-260.79 -323.83,-427.57 -38.4,-234.92 100.11,-402.77 290.31,-446.72 396.41,-91.6 637.59,461.92 904.47,594.54zm-99.3 -2907.58c-1356.54,244.23 -2538.65,1508.32 -2229.4,3184.54 243.89,1322.02 1522.07,2482.78 3163.59,2195.2 1326.04,-232.3 2502.64,-1511.61 2215.29,-3153.86 -232.07,-1326.26 -1516.7,-2519.85 -3149.48,-2225.88z"/>
  <path class="fil11" d="M6170.09 3482.71c-61.85,9.94 -192.14,2.54 -261.39,2.55 -290.08,0.03 -266.98,25.06 -266.98,-263.94 -0.01,-73.97 -7.12,-195.69 2.67,-263.91 47.6,51.84 511.45,518.12 525.7,525.3zm-1580.4 368.48l-0.35 0 -0.01 -81.89 0.01 0c-1,-269.48 -0.44,-537.48 4.85,-799.28 2.38,-117.76 76.65,-182.17 195.22,-183.25l746.26 0.15c206.28,0 169.55,-15.78 279.68,93.82 127.84,127.23 249.52,249.2 376.95,376.71 102.34,102.41 148.11,119.05 147.94,222.41 -0.21,123.78 -0.14,247.55 -0.18,371.33l-0.35 0c-1.59,332 -5.05,665.53 -4.47,991.84 0.49,278.46 -234.06,213.42 -538.03,213.44 -78.21,0.01 -237.31,7.81 -332.51,1.69 -95.2,6.12 -254.3,-1.68 -332.51,-1.69 -303.97,-0.02 -538.52,65.02 -538.03,-213.44 0.58,-326.31 -2.88,-659.84 -4.47,-991.84z"/>
  <g>
   <path class="fil18" d="M-2797.12 10533.75c21.66,-11.37 182.08,-4.38 221.37,-4.38 73.98,0 147.96,0 221.95,0l-0.52 -427.66 4.35 -10.94c7.92,-49.87 92.79,-33.79 140.25,-33.79 45.65,0 131.2,-15.64 141.51,30.34 13.62,26.75 4.56,380.31 4.56,442.71 55.31,0 421.57,-6.53 439.8,4.24 48.11,9.09 32.16,94.31 32.16,140.87 0,46.45 16.07,132.07 -32.13,140.87 -18.65,10.92 -385.09,4.24 -440.79,4.24l0.55 428.34 -4.95 12.03c-5.68,28.9 -25.95,32.28 -56.78,32.21l-172.34 0.03c-29.18,-0.14 -46.96,-5.47 -52.32,-32.21l-4.38 -12.2 1.78 -428.84 -430.12 0.51 -10.84 -4.75c-29.82,-4.45 -33.46,-25.03 -33.4,-56.3 0.05,-27.97 0.13,-55.95 0.13,-83.93 0,-45.87 -15.48,-130.27 30.16,-141.39zm1714.32 207.54c10.96,-165.83 -20.55,-343.03 -77.03,-480.97 -61.09,-149.16 -166.44,-313.81 -288.07,-417.57 -201.26,-171.69 -402.8,-276.85 -693.66,-294.52 -644.28,-39.15 -1158.87,460.49 -1195.09,1058.74 -51.29,847.29 808.83,1414.49 1541.77,1118.09 67.5,-27.3 132.82,-59.36 187.12,-95.21 30.45,-20.1 56.64,-36.59 83.2,-57.9 29.03,-23.29 49.67,-41.38 76.54,-64.52 85.37,-73.52 178.87,-192.94 244.51,-319.86 65.64,-126.94 109.74,-280.53 120.71,-446.28z"/>
   <path class="fil19" d="M-2349.97 10090.77c1.46,73.49 0.07,148.92 0.07,222.75 0,42.08 5.23,188.64 -2.76,219.93l-444.46 0.3c-45.64,11.12 -30.16,95.52 -30.16,141.39 0,27.98 -0.08,55.96 -0.13,83.93 -0.06,31.27 3.58,51.85 33.4,56.3l443.13 2.5 0.43 442.78c5.36,26.74 23.14,32.07 52.32,32.21l172.34 -0.03c30.83,0.07 51.1,-3.31 56.78,-32.21l2.33 -444.3 442.86 -0.31c48.2,-8.8 32.13,-94.42 32.13,-140.87 0,-46.56 15.95,-131.78 -32.16,-140.87 -74.65,-0.31 -149.52,-0.18 -224.25,-0.18 -41.84,0 -188.28,5.23 -219.64,-2.52l-0.47 -444.25c-10.31,-45.98 -95.86,-30.34 -141.51,-30.34 -47.46,0 -132.33,-16.08 -140.25,33.79z"/>
   <path class="fil20" d="M-1623.85 10534.27c-18.23,-10.77 -384.49,-4.24 -439.8,-4.24 0,-62.4 9.06,-415.96 -4.56,-442.71l0.47 444.25c31.36,7.75 177.8,2.52 219.64,2.52 74.73,0 149.6,-0.13 224.25,0.18z"/>
   <path class="fil20" d="M-2797.12 10533.75l444.46 -0.3c7.99,-31.29 2.76,-177.85 2.76,-219.93 0,-73.83 1.39,-149.26 -0.07,-222.75l-4.35 10.94 0.52 427.66c-73.99,0 -147.97,0 -221.95,0 -39.29,0 -199.71,-6.99 -221.37,4.38z"/>
   <path class="fil20" d="M-2069.01 11260.62l4.95 -12.03 -0.55 -428.34c55.7,0 422.14,6.68 440.79,-4.24l-442.86 0.31 -2.33 444.3z"/>
   <polygon class="fil20" points="-2350.45,11260.65 -2350.88,10817.87 -2794.01,10815.37 -2783.17,10820.12 -2353.05,10819.61 -2354.83,11248.45 "/>
  </g>
  <path class="fil21" d="M-814.27 3068.99c-10.62,178.91 -205.73,339.94 -217.77,367.5 52.04,37.8 340.08,-64.77 437.71,-130.04 38.14,-25.5 73.13,-70.26 130.27,-65.05 77.02,7.04 96.77,28.09 181.34,34.67 -13.72,-46.07 -21.12,-94.87 -21.12,-145.4 0,-280.92 227.72,-508.64 508.63,-508.64 160.22,0 303.11,74.1 396.34,189.87 79.28,-185.64 58.84,-402.24 -117.06,-601.02 -285.73,-322.89 -842.37,-360.46 -1174.57,-153.23 -46.51,29.02 -80.47,44.49 -118.82,78.1 -211.16,185.11 -298.42,434.19 -177.17,703.65 45.25,100.57 100.45,148.56 172.22,229.59z"/>
  <g>
   <path class="fil18" d="M-18.11 3076.94c8.21,-4.32 69.09,-1.66 84,-1.66 28.08,0 56.15,0 84.23,0l-0.2 -162.3 1.66 -4.15c3,-18.93 35.21,-12.82 53.22,-12.82 17.32,0 49.79,-5.94 53.7,11.51 5.17,10.15 1.73,144.33 1.73,168.01 20.99,0 159.98,-2.48 166.9,1.61 18.26,3.45 12.21,35.79 12.21,53.45 0,17.63 6.09,50.12 -12.2,53.46 -7.08,4.15 -146.14,1.61 -167.27,1.61l0.21 162.55 -1.88 4.57c-2.16,10.97 -9.85,12.25 -21.55,12.22l-65.4 0.02c-11.08,-0.06 -17.83,-2.08 -19.86,-12.23l-1.66 -4.63 0.68 -162.74 -163.23 0.19 -4.12 -1.8c-11.31,-1.69 -12.69,-9.5 -12.67,-21.36 0.02,-10.62 0.05,-21.24 0.05,-31.86 0,-17.4 -5.87,-49.43 11.45,-53.65zm650.56 78.76c4.17,-62.93 -7.79,-130.18 -29.23,-182.53 -23.18,-56.6 -63.16,-119.09 -109.32,-158.46 -76.37,-65.16 -152.86,-105.06 -263.23,-111.77 -244.51,-14.86 -439.79,174.75 -453.53,401.79 -19.47,321.54 306.94,536.78 585.09,424.3 25.61,-10.36 50.4,-22.53 71.01,-36.13 11.55,-7.63 21.49,-13.89 31.57,-21.97 11.02,-8.84 18.85,-15.71 29.05,-24.49 32.39,-27.9 67.88,-73.22 92.79,-121.38 24.91,-48.17 41.64,-106.46 45.8,-169.36z"/>
   <path class="fil19" d="M151.58 2908.83c0.55,27.89 0.02,56.52 0.02,84.53 0,15.97 1.98,71.59 -1.05,83.46l-168.66 0.12c-17.32,4.22 -11.45,36.25 -11.45,53.65 0,10.62 -0.03,21.24 -0.05,31.86 -0.02,11.86 1.36,19.67 12.67,21.36l168.17 0.95 0.16 168.03c2.03,10.15 8.78,12.17 19.86,12.23l65.4 -0.02c11.7,0.03 19.39,-1.25 21.55,-12.22l0.88 -168.61 168.06 -0.12c18.29,-3.34 12.2,-35.83 12.2,-53.46 0,-17.66 6.05,-50 -12.21,-53.45 -28.33,-0.12 -56.74,-0.07 -85.1,-0.07 -15.88,0 -71.45,1.98 -83.35,-0.96l-0.18 -168.59c-3.91,-17.45 -36.38,-11.51 -53.7,-11.51 -18.01,0 -50.22,-6.11 -53.22,12.82z"/>
   <path class="fil20" d="M427.13 3077.14c-6.92,-4.09 -145.91,-1.61 -166.9,-1.61 0,-23.68 3.44,-157.86 -1.73,-168.01l0.18 168.59c11.9,2.94 67.47,0.96 83.35,0.96 28.36,0 56.77,-0.05 85.1,0.07z"/>
   <path class="fil20" d="M-18.11 3076.94l168.66 -0.12c3.03,-11.87 1.05,-67.49 1.05,-83.46 0,-28.01 0.53,-56.64 -0.02,-84.53l-1.66 4.15 0.2 162.3c-28.08,0 -56.15,0 -84.23,0 -14.91,0 -75.79,-2.66 -84,1.66z"/>
   <path class="fil20" d="M258.2 3352.78l1.88 -4.57 -0.21 -162.55c21.13,0 160.19,2.54 167.27,-1.61l-168.06 0.12 -0.88 168.61z"/>
   <polygon class="fil20" points="151.39,3352.79 151.23,3184.76 -16.94,3183.81 -12.82,3185.61 150.41,3185.42 149.73,3348.16 "/>
  </g>
  <g>
   <path class="fil21" d="M971.46 69.1c-3.75,63.19 -72.66,120.05 -76.91,129.79 18.38,13.35 120.11,-22.88 154.59,-45.93 13.47,-9.01 25.83,-24.81 46.01,-22.97 27.2,2.48 34.17,9.92 64.04,12.24 -4.85,-16.27 -7.46,-33.5 -7.46,-51.35 0,-99.21 80.42,-179.64 179.63,-179.64 56.59,0 107.05,26.17 139.98,67.06 28,-65.56 20.78,-142.06 -41.35,-212.26 -100.91,-114.04 -297.49,-127.31 -414.82,-54.12 -16.42,10.25 -28.42,15.71 -41.96,27.59 -74.58,65.37 -105.4,153.34 -62.57,248.5 15.98,35.52 35.47,52.47 60.82,81.09z"/>
   <g>
    <path class="fil18" d="M1252.64 71.9c2.9,-1.52 24.4,-0.58 29.67,-0.58 9.91,0 19.83,0 29.74,0l-0.06 -57.32 0.58 -1.47c1.06,-6.68 12.44,-4.52 18.8,-4.52 6.11,0 17.58,-2.1 18.96,4.06 1.83,3.59 0.61,50.97 0.61,59.34 7.42,0 56.5,-0.88 58.95,0.57 6.45,1.21 4.31,12.63 4.31,18.87 0,6.23 2.15,17.71 -4.31,18.89 -2.5,1.46 -51.61,0.56 -59.08,0.56l0.08 57.41 -0.67 1.61c-0.76,3.88 -3.47,4.33 -7.61,4.32l-23.09 0.01c-3.91,-0.02 -6.3,-0.74 -7.02,-4.32l-0.58 -1.64 0.24 -57.47 -57.65 0.07 -1.45 -0.64c-4,-0.6 -4.49,-3.36 -4.48,-7.55 0.01,-3.75 0.02,-7.49 0.02,-11.25 0,-6.14 -2.08,-17.45 4.04,-18.95zm229.76 27.82c1.47,-22.22 -2.75,-45.97 -10.32,-64.46 -8.19,-19.99 -22.31,-42.06 -38.61,-55.97 -26.97,-23.01 -53.99,-37.1 -92.97,-39.47 -86.35,-5.25 -155.32,61.72 -160.17,141.9 -6.88,113.56 108.4,189.58 206.63,149.85 9.05,-3.66 17.81,-7.95 25.08,-12.76 4.08,-2.69 7.6,-4.9 11.15,-7.76 3.9,-3.12 6.66,-5.55 10.26,-8.65 11.44,-9.85 23.98,-25.86 32.77,-42.87 8.8,-17.01 14.71,-37.59 16.18,-59.81z"/>
    <path class="fil19" d="M1312.57 12.53c0.19,9.85 0.01,19.96 0.01,29.86 0,5.64 0.7,25.28 -0.37,29.47l-59.57 0.04c-6.12,1.5 -4.04,12.81 -4.04,18.95 0,3.76 -0.01,7.5 -0.02,11.25 -0.01,4.19 0.48,6.95 4.48,7.55l59.39 0.33 0.05 59.35c0.72,3.58 3.11,4.3 7.02,4.32l23.09 -0.01c4.14,0.01 6.85,-0.44 7.61,-4.32l0.32 -59.54 59.35 -0.04c6.46,-1.18 4.31,-12.66 4.31,-18.89 0,-6.24 2.14,-17.66 -4.31,-18.87 -10.01,-0.05 -20.04,-0.03 -30.06,-0.03 -5.61,0 -25.23,0.7 -29.44,-0.34l-0.06 -59.54c-1.38,-6.16 -12.85,-4.06 -18.96,-4.06 -6.36,0 -17.74,-2.16 -18.8,4.52z"/>
    <path class="fil20" d="M1409.89 71.98c-2.45,-1.45 -51.53,-0.57 -58.95,-0.57 0,-8.37 1.22,-55.75 -0.61,-59.34l0.06 59.54c4.21,1.04 23.83,0.34 29.44,0.34 10.02,0 20.05,-0.02 30.06,0.03z"/>
    <path class="fil20" d="M1252.64 71.9l59.57 -0.04c1.07,-4.19 0.37,-23.83 0.37,-29.47 0,-9.9 0.18,-20.01 -0.01,-29.86l-0.58 1.47 0.06 57.32c-9.91,0 -19.83,0 -29.74,0 -5.27,0 -26.77,-0.94 -29.67,0.58z"/>
    <path class="fil20" d="M1350.22 169.32l0.67 -1.61 -0.08 -57.41c7.47,0 56.58,0.9 59.08,-0.56l-59.35 0.04 -0.32 59.54z"/>
    <polygon class="fil20" points="1312.5,169.33 1312.45,109.98 1253.06,109.65 1254.51,110.29 1312.16,110.22 1311.92,167.69 "/>
   </g>
  </g>
  <g>
   <g>
    <path class="fil22" d="M2067.34 916.58c-3.1,3.13 -9.92,8.04 -14.09,11.37l-44.99 35.98c-8.76,6.86 -39.35,28.63 -42.59,38.37 -2.48,7.42 -0.33,15.28 4.01,20.04 13.54,14.88 27.33,3.45 36.66,-4.13l65.37 -52.29c-14.47,25.6 -22.75,55.16 -22.75,86.68 0,68.09 38.6,127.16 95.11,156.54 -25.1,4.91 -51.51,6.56 -78.86,4.41 -150.89,-11.88 -277.07,-143.34 -264.26,-309.42 4.76,-61.71 26.47,-110.28 60.78,-155.31 10.14,-13.33 22.25,-26.86 34.95,-37.07 18.96,-15.25 16.6,-15.24 41.11,-30.79 13.66,-8.69 31.29,-17.18 48.36,-23.63 37.56,-14.18 79.78,-21.18 123.62,-17.64 88.64,7.17 154.67,51.53 193.02,95.67 50.53,58.15 78.51,131.24 72.07,213.74 -0.23,2.92 -0.53,5.85 -0.85,8.75 -31.31,-49.05 -86.21,-81.58 -148.73,-81.58 -44.85,0 -85.79,16.76 -116.91,44.35 0.79,-30.22 0.09,-110.25 0.09,-123.31 0,-14.66 3.25,-39.41 -5.39,-48.91 -10.53,-11.57 -29.89,-7.35 -34.57,7.01 -2.53,7.78 -1.16,146.49 -1.16,161.17z"/>
    <path class="fil23" d="M2067.34 916.58c0,-14.68 -1.37,-153.39 1.16,-161.17 4.68,-14.36 24.03,-18.58 34.57,-7.01 8.64,9.5 5.39,34.25 5.39,48.91 0,13.06 0.7,93.09 -0.09,123.31 -14.58,12.92 -27,28.22 -36.66,45.3l-65.37 52.29c-9.33,7.58 -23.12,19.01 -36.66,4.13 -4.34,-4.76 -6.49,-12.62 -4.01,-20.04 3.24,-9.74 33.83,-31.51 42.59,-38.37l44.99 -35.98c4.17,-3.33 10.99,-8.24 14.09,-11.37z"/>
   </g>
   <g>
    <path class="fil18" d="M2150.14 1042.13c2.75,-1.45 23.14,-0.56 28.14,-0.56 9.4,0 18.8,0 28.21,0l-0.07 -54.36 0.56 -1.39c1,-6.34 11.79,-4.3 17.82,-4.3 5.81,0 16.68,-1.98 17.99,3.86 1.73,3.4 0.58,48.34 0.58,56.28 7.03,0 53.59,-0.84 55.9,0.53 6.12,1.16 4.09,11.99 4.09,17.91 0,5.9 2.04,16.79 -4.08,17.91 -2.37,1.38 -48.95,0.54 -56.03,0.54l0.07 54.44 -0.63 1.53c-0.72,3.68 -3.3,4.11 -7.22,4.1l-21.9 0c-3.71,-0.02 -5.97,-0.69 -6.66,-4.09l-0.55 -1.56 0.22 -54.51 -54.67 0.07 -1.38 -0.61c-3.79,-0.56 -4.25,-3.18 -4.24,-7.15 0,-3.56 0.01,-7.11 0.01,-10.67 0,-5.83 -1.96,-16.56 3.84,-17.97zm217.91 26.38c1.39,-21.08 -2.61,-43.6 -9.79,-61.14 -7.77,-18.96 -21.16,-39.89 -36.62,-53.08 -25.58,-21.82 -51.2,-35.19 -88.17,-37.43 -81.9,-4.98 -147.31,58.53 -151.91,134.58 -6.52,107.7 102.81,179.79 195.98,142.12 8.58,-3.47 16.88,-7.55 23.78,-12.1 3.87,-2.56 7.2,-4.66 10.58,-7.36 3.69,-2.96 6.31,-5.26 9.72,-8.21 10.86,-9.34 22.74,-24.52 31.08,-40.65 8.35,-16.14 13.96,-35.66 15.35,-56.73z"/>
    <path class="fil19" d="M2206.98 985.82c0.18,9.34 0.01,18.93 0.01,28.31 0,5.35 0.66,23.98 -0.36,27.96l-56.49 0.04c-5.8,1.41 -3.84,12.14 -3.84,17.97 0,3.56 -0.01,7.11 -0.01,10.67 -0.01,3.97 0.45,6.59 4.24,7.15l56.33 0.32 0.05 56.29c0.69,3.4 2.95,4.07 6.66,4.09l21.9 0c3.92,0.01 6.5,-0.42 7.22,-4.1l0.3 -56.47 56.29 -0.04c6.12,-1.12 4.08,-12.01 4.08,-17.91 0,-5.92 2.03,-16.75 -4.09,-17.91 -9.48,-0.04 -19,-0.02 -28.5,-0.02 -5.32,0 -23.93,0.67 -27.92,-0.32l-0.06 -56.47c-1.31,-5.84 -12.18,-3.86 -17.99,-3.86 -6.03,0 -16.82,-2.04 -17.82,4.3z"/>
    <path class="fil20" d="M2299.27 1042.19c-2.31,-1.37 -48.87,-0.53 -55.9,-0.53 0,-7.94 1.15,-52.88 -0.58,-56.28l0.06 56.47c3.99,0.99 22.6,0.32 27.92,0.32 9.5,0 19.02,-0.02 28.5,0.02z"/>
    <path class="fil20" d="M2150.14 1042.13l56.49 -0.04c1.02,-3.98 0.36,-22.61 0.36,-27.96 0,-9.38 0.17,-18.97 -0.01,-28.31l-0.56 1.39 0.07 54.36c-9.41,0 -18.81,0 -28.21,0 -5,0 -25.39,-0.89 -28.14,0.56z"/>
    <path class="fil20" d="M2242.69 1134.52l0.63 -1.53 -0.07 -54.44c7.08,0 53.66,0.84 56.03,-0.54l-56.29 0.04 -0.3 56.47z"/>
    <polygon class="fil20" points="2206.91,1134.53 2206.86,1078.24 2150.53,1077.92 2151.91,1078.53 2206.58,1078.46 2206.36,1132.97 "/>
   </g>
  </g>
  <g>
   <path class="fil24" d="M-759.18 589.61c-15.55,2.5 -48.31,0.64 -65.71,0.64 -72.93,0.01 -67.12,6.3 -67.12,-66.35 0,-18.6 -1.79,-49.2 0.67,-66.35 11.97,13.04 128.57,130.25 132.16,132.06zm-397.3 92.63l-0.08 0 -0.01 -20.59 0.01 0c-0.26,-67.74 -0.12,-135.11 1.21,-200.93 0.6,-29.6 19.27,-45.79 49.08,-46.06l187.6 0.03c51.86,0 42.62,-3.96 70.31,23.59 32.14,31.98 62.72,62.65 94.76,94.7 25.73,25.74 37.23,29.93 37.19,55.91 -0.05,31.12 -0.04,62.23 -0.05,93.35l-0.08 0c-0.4,83.46 -1.27,167.3 -1.13,249.33 0.12,70.01 -58.84,53.65 -135.25,53.66 -19.66,0 -59.66,1.96 -83.59,0.42 -23.93,1.54 -63.93,-0.42 -83.59,-0.42 -76.41,-0.01 -135.38,16.35 -135.25,-53.66 0.14,-82.03 -0.73,-165.87 -1.13,-249.33z"/>
   <path class="fil23" d="M-1026.43 683.11c-15.74,-11.45 -24.47,-32.73 -41.83,-27.86 -7.82,2.2 -15.3,10.88 -12.92,21.73 1.62,7.42 11.5,15.7 15.74,19.95 46.2,46.2 31.24,46.78 115.46,-37.43 4.37,-4.37 14.09,-12.35 15.35,-20.34 1.68,-10.63 -5.51,-19.18 -14.03,-20.98 -14.33,-3.04 -28.11,15.76 -41.33,28.96l-36.44 35.97z"/>
   <path class="fil23" d="M-1026.43 787.9c-15.77,-11.47 -25.16,-33.6 -42.68,-27.58 -7.38,2.54 -14.95,11.33 -11.84,22.36 2.23,7.9 27.06,30.57 33.94,37.46 4.68,4.69 11.54,13.8 22.7,12.61 8.7,-0.93 16.33,-10.47 20.77,-14.91l54.13 -54.13c4.41,-4.41 14.04,-12.11 14.91,-20.77 1.07,-10.58 -6.35,-18.77 -15.12,-20.16 -11.56,-1.82 -18.35,7.14 -23.08,11.88l-53.73 53.24z"/>
   <path class="fil23" d="M-897.07 781.13c3.51,20.9 37.55,14.98 58.37,14.98 16.6,0 55.98,6.5 51.48,-21.56 -3.4,-21.2 -36.5,-15.31 -58.39,-15.31 -16.69,0 -56.24,-6.54 -51.46,21.89z"/>
   <path class="fil23" d="M-883.49 655.28c-19.59,5.72 -20.88,36.09 10.22,36.06 12.72,-0.01 64.67,1.54 72.99,-0.81 17.93,-5.07 21.17,-36.12 -10.76,-36.1 -12.6,0.02 -64.63,-1.44 -72.45,0.85z"/>
   <path class="fil23" d="M-1026.43 888.47c-15.77,-11.47 -25.16,-33.6 -42.68,-27.58 -7.38,2.54 -14.95,11.33 -11.84,22.36 2.23,7.9 27.06,30.58 33.94,37.47 4.68,4.68 11.54,13.79 22.7,12.6 8.7,-0.93 16.33,-10.46 20.77,-14.91l54.13 -54.13c4.41,-4.41 14.04,-12.11 14.91,-20.76 1.07,-10.58 -6.35,-18.78 -15.12,-20.16 -11.56,-1.83 -18.35,7.13 -23.08,11.87l-53.73 53.24z"/>
   <path class="fil23" d="M-897.07 881.7c3.51,20.9 37.55,14.98 58.37,14.98 16.6,0 55.98,6.5 51.48,-21.56 -3.4,-21.2 -36.5,-15.3 -58.39,-15.3 -16.69,0 -56.24,-6.55 -51.46,21.88z"/>
  </g>
  <g>
   <g>
    <path class="fil25" d="M-589.3 929.75c-4.2,-22.87 29.76,-26.64 32.97,-6.41 3.55,22.38 -29.31,26.35 -32.97,6.41zm100.66 -22.14c5.55,-3.14 22.76,-21.87 28.67,-27.78 12.04,-12.02 21.18,-25.72 34.81,-19.15 5.98,2.88 10.46,9.71 9.13,18.21 -1.37,8.76 -34.35,38.39 -41.2,45.22 -4.96,4.95 -9.09,9.08 -14.03,14.03 -14.81,14.83 -20.23,14.51 -34.74,-0.01 -5.55,-5.55 -25.59,-23.45 -27.02,-30.21 -1.87,-8.88 2.76,-16.2 8.97,-19.18 16.31,-7.85 26.84,13.96 35.41,18.87zm-100.52 -86.76c-5.17,-22.03 28.25,-29.27 32.71,-7.4 4.44,21.8 -27.79,28.38 -32.71,7.4zm100.52 -22.69c8.04,-6.12 20.2,-19.85 28.12,-27.77 11.45,-11.45 21.34,-26.01 35.77,-19.01 5.54,2.69 10.34,9.92 8.6,18.5 -1.88,9.26 -33.27,37.5 -40.53,44.76 -33.9,33.91 -30.67,33.31 -64.47,-0.56 -3.91,-3.92 -10.49,-9.11 -11.92,-16.13 -1.76,-8.66 3.1,-15.78 8.63,-18.49 16.12,-7.87 28.57,13 35.8,18.7zm-100.66 -87.32c-4.21,-22.86 29.76,-26.65 32.97,-6.41 3.55,22.38 -29.3,26.35 -32.97,6.41zm100.66 -22.14c5.5,-3.1 22.8,-21.91 28.67,-27.78 12.01,-12.01 21.19,-25.72 34.81,-19.15 5.97,2.88 10.46,9.71 9.13,18.21 -1.08,6.94 -8.88,12.88 -12.57,16.6l-42.66 42.66c-4.19,4.17 -8.29,10.56 -17.38,10.56 -9.14,0.01 -13.16,-6.37 -17.36,-10.58 -5.55,-5.57 -25.58,-23.44 -27.02,-30.21 -1.87,-8.88 2.76,-16.19 8.97,-19.18 16.3,-7.85 26.86,13.96 35.41,18.87zm285.91 208.83l-31.68 31.6c-10.27,8.69 -27.43,15.79 -41.98,22 -14.24,6.08 -30.17,13.24 -44.04,19.98 -15.01,7.31 -31.77,15.38 -51.31,9.03 -15.29,-4.97 -27.16,-16.24 -32.44,-31.58 -7.2,-20.89 0.83,-35.6 8.19,-51.93l30.23 -66.26c4.8,-10.09 5.45,-12.68 12.37,-20.18 20.17,-21.88 42.72,-42.91 63.91,-64.09l80.27 -80.27c9.07,-8.99 6.83,-5.55 6.83,-25.72l0.03 -96.59c-0.23,-9.89 -4.86,-17.14 -13.77,-18.67 -13.33,-2.27 -49.16,-0.36 -64.83,-0.36 0,16.82 1.44,33.35 -6.11,46.68 -5.85,10.33 -16.23,20.06 -29.77,24.1 -15.73,4.7 -83.03,2.18 -104.45,2.19 -22.13,0 -87.7,2.59 -104.37,-2.29 -13.81,-4.04 -23.34,-13.02 -29.36,-23.42 -8.44,-14.58 -6.59,-29.44 -6.61,-47.26 -11.8,0 -62.33,-1.66 -69.08,1.66 -9.6,4.72 -9.51,14.47 -9.49,26.4l0 321.07c0,19.46 -2.65,133.49 2.06,141.66 5.06,8.77 14.22,8.78 26,8.76l321.07 0c22.65,0 49.78,1.37 71.87,-0.04 11.02,-0.71 16.58,-7.81 16.84,-18.98 0.44,-19.09 0.92,-97.28 -0.38,-107.49z"/>
    <path class="fil25" d="M-316.19 820.85c4.57,8.58 63.22,61.9 69.6,71.11 5.42,-2.26 42.21,-40.75 49.42,-47.94l97.66 -97.68c5.27,-5.25 21.36,-17.68 10.45,-30.97l-24.84 -24.52c-43.01,-43.04 -27.6,-45.68 -104.91,31.61 -11.63,11.64 -94.53,93.09 -97.38,98.39z"/>
    <path class="fil25" d="M-483.02 485.2c-16.45,0.01 -40.62,-4.34 -44.37,12.8 -1.43,6.56 -1.26,50.53 0.79,55.51 6.11,14.81 30.85,10.26 46.94,10.26 19.46,0 38.92,0 58.38,0l85.35 0.03c9.49,-0.02 16.07,-2.29 19.62,-9.54 2.41,-4.94 2.58,-47.86 1.3,-55.31 -3.1,-18.17 -27.45,-13.76 -44.54,-13.75 0.01,-12.53 3.27,-31.84 -12.8,-35.38 -5.26,-1.16 -90.68,-1.25 -96.92,-0.19 -17.25,2.94 -13.75,23.14 -13.75,35.57z"/>
   </g>
   <path class="fil25" d="M-273.22 912.78c-1.78,-3.36 -59.52,-61.62 -64.18,-64l-20.8 46.39c-3.74,7.74 -6.83,15.43 -10.5,23.19 -10.74,22.69 2.17,37 25.14,26.26 7.89,-3.69 15.44,-6.79 23.18,-10.51 15.32,-7.35 31.43,-14.49 47.16,-21.33z"/>
  </g>
  <g>
   <path class="fil26" d="M2803.58 30.97c-14.95,2.4 -46.44,0.62 -63.18,0.62 -70.12,0.01 -64.54,6.06 -64.54,-63.8 0,-17.88 -1.72,-47.31 0.65,-63.8 11.51,12.53 123.63,125.25 127.07,126.98zm-382.02 89.07l-0.08 0 0 -19.79 0 0c-0.24,-65.14 -0.11,-129.92 1.17,-193.21 0.58,-28.46 18.53,-44.03 47.19,-44.29l180.39 0.03c49.86,0 40.98,-3.81 67.61,22.68 30.9,30.76 60.31,60.24 91.11,91.06 24.74,24.76 35.81,28.78 35.76,53.76 -0.05,29.92 -0.03,59.84 -0.04,89.76l-0.08 0c-0.39,80.26 -1.22,160.88 -1.08,239.76 0.11,67.31 -56.58,51.58 -130.06,51.59 -18.9,0 -57.36,1.89 -80.38,0.41 -23.01,1.48 -61.47,-0.41 -80.37,-0.41 -73.48,-0.01 -130.18,15.72 -130.06,-51.59 0.14,-78.88 -0.69,-159.5 -1.08,-239.76z"/>
   <g>
    <rect class="fil0 str1" x="2480.73" y="103.95" width="315.18" height="32.74"/>
    <rect class="fil0 str1" x="2480.73" y="183.76" width="315.18" height="32.74"/>
    <rect class="fil0 str1" x="2480.73" y="263.58" width="315.18" height="32.74"/>
   </g>
  </g>
  <g>
   <path class="fil26" d="M1332.85 828.51c0.69,22.02 -2.1,44.3 -32.94,44.3l-314 0c-20.86,0 -33.33,-11.85 -33.33,-32.77l0 -414.43c0,-25.89 18.75,-36.3 45.66,-32.43 -0.2,127.95 -1.18,256.6 -0.02,384.49 0.26,29 17.52,49.18 45.85,50.72 30.36,1.66 65.33,0.12 96.2,0.12 64.19,0 128.39,0.02 192.58,0z"/>
   <path class="fil26" d="M1371.97 458.87c-13.74,2.21 -42.69,0.57 -58.07,0.57 -64.44,0 -59.31,5.56 -59.31,-58.64 0,-16.43 -1.58,-43.47 0.59,-58.62 10.58,11.51 113.62,115.1 116.79,116.69zm-351.09 81.86l-0.07 0 -0.01 -18.19 0.01 0c-0.23,-59.87 -0.1,-119.4 1.07,-177.56 0.53,-26.16 17.03,-40.47 43.37,-40.71l165.78 0.03c45.83,0 37.67,-3.5 62.13,20.84 28.4,28.27 55.43,55.36 83.74,83.69 22.73,22.75 32.9,26.45 32.86,49.41 -0.04,27.5 -0.03,54.99 -0.04,82.49l-0.07 0c-0.36,73.75 -1.12,147.84 -1,220.33 0.11,61.86 -51.99,47.41 -119.52,47.42 -17.37,0 -52.72,1.73 -73.86,0.37 -21.15,1.36 -56.5,-0.37 -73.87,-0.37 -67.53,-0.01 -119.63,14.44 -119.52,-47.42 0.13,-72.49 -0.64,-146.58 -1,-220.33z"/>
   <g>
    <rect class="fil0 str1" x="1075.26" y="525.94" width="289.65" height="30.09"/>
    <rect class="fil0 str1" x="1075.26" y="599.29" width="289.65" height="30.09"/>
    <rect class="fil0 str1" x="1075.26" y="672.64" width="289.65" height="30.09"/>
   </g>
  </g>
  <g>
   <path class="fil27" d="M546.24 346.87c-3.5,15.78 -15.34,18.15 -28.43,18.13 -14.07,-0.02 -28.14,-0.02 -42.21,-0.02 -30.79,0 -50.85,-3.58 -60.34,34.38 -4.5,17.99 -1.45,29.04 -9.04,47.4 -12.72,30.79 -39.27,22.81 -68.63,22.81 -13.64,0 -28.76,0.88 -42.23,-0.35 -33.71,-3.09 -27.54,-30.94 -35.44,-69.95 -7.65,-37.75 -32.32,-34.29 -60.34,-34.29 -14.07,0 -28.14,0.01 -42.21,0.02 -43.6,0.05 -27,-38.27 -17.23,-64.06l44.84 -115.44c9.85,-26.74 21.18,-55.57 34.57,-71.35 10.73,-12.64 18.45,-10.56 34.78,-10.56l126.6 0c24.36,0 55.4,-1.9 75.92,12.03 10.86,7.38 15.22,17.04 21.34,29.93 5.98,12.57 39.85,104.53 44.34,117.79 8.76,25.81 27.91,64.56 23.71,83.53zm83.56 241.74c2.23,-15.95 0.93,-147.44 0.93,-174.78 0,-30.27 2.08,-53.73 -5.84,-79.83 -18.54,-61.17 -67.96,-159.71 -97.48,-213.24 -43.13,-78.22 -67.2,-69.77 -136.21,-69.64 -41.06,0.08 -82.13,0.14 -123.19,0.2 -34.9,0.06 -67.42,0.75 -96.31,38.37 -27.51,35.82 -110.84,213.77 -122.44,265.7 -4.58,20.5 -2.52,142.39 -2.52,172.78 0,23.46 -2.92,64.55 5.11,80.89 9.84,20.02 29.51,17.16 49.63,17.16l431.15 0c20.2,0 41.44,1.02 61.51,-0.65 20.91,-1.73 31.76,-8.97 35.66,-36.96z"/>
   <path class="fil27" d="M192.95 310.62l290.49 0.16c-0.58,-21.1 -8.62,-30.78 -17.23,-38.62 -12.71,-11.57 -20.62,-11.77 -37.37,-11.76l-180.22 0c-21.87,0 -53.73,-5.2 -55.67,50.22z"/>
   <path class="fil27" d="M229.42 206.12l218.72 0.13c-0.58,-29.14 -22.38,-47.69 -36.58,-50.11l-144.72 -0.23c-23.5,0.47 -36.15,17.32 -37.42,50.21z"/>
  </g>
  <g>
   <path class="fil28" d="M1398.82 -3039.48c9.59,-3.22 18.28,0.88 23.13,5.91 5.39,5.61 6.24,13.1 6.21,22.76l-0.02 119.22c0,28.56 2.9,29.63 -13.02,45.41 -14.32,14.19 -112.58,114.9 -120.46,117.92 -18.6,7.13 -35.69,-9.55 -29.79,-28.3 2.28,-7.27 22.52,-25.69 27.91,-31.08 20.2,-20.21 39.36,-39.4 59.58,-59.6 4.18,-4.16 28.72,-27.93 29.91,-30.28 2.48,-4.94 0.99,-104.11 0.99,-117.83 0,-20.21 -2.84,-37.95 15.56,-44.13zm32.45 490.16c-9.09,-9.03 -17.73,-17.48 -25.5,-27.78 -19.41,-25.74 -32.69,-57.16 -36.41,-92.72 -8.84,-84.7 39.9,-162.44 117.3,-193.19 54.8,-21.77 117.05,-15.99 166.58,14.61 25.91,16.01 34.18,27.63 52.1,47.55l1.56 1.55c0.12,-0.25 0.52,0.53 0.82,0.76 4.95,-44.68 6.93,-74.69 -1.89,-119.31 -15.21,-76.91 -63.19,-151.07 -124.65,-195.01 -102.29,-73.12 -229.33,-83.79 -344.77,-22.84 -30.81,16.27 -35.92,23.88 -56.93,39.84l-31.47 31.67c-2.63,3.36 -5.05,5.57 -7.77,9.05 -32.38,41.51 -55.69,87.53 -65.47,141.91 -14.62,81.37 0.47,149.05 33.04,211.99 16.36,31.59 32.1,49.56 54.45,73.17 41.28,43.6 102.26,77.42 165.52,89.65 45.88,8.86 72.65,5.92 118.15,1.66l-14.66 -12.56z"/>
   <path class="fil23" d="M1398.82 -3039.48c-18.4,6.18 -15.56,23.92 -15.56,44.13 0,13.72 1.49,112.89 -0.99,117.83 -1.19,2.35 -25.73,26.12 -29.91,30.28 -20.22,20.2 -39.38,39.39 -59.58,59.6 -5.39,5.39 -25.63,23.81 -27.91,31.08 -5.9,18.75 11.19,35.43 29.79,28.3 7.88,-3.02 106.14,-103.73 120.46,-117.92 15.92,-15.78 13.02,-16.85 13.02,-45.41l0.02 -119.22c0.03,-9.66 -0.82,-17.15 -6.21,-22.76 -4.85,-5.03 -13.54,-9.13 -23.13,-5.91z"/>
   <g>
    <path class="fil18" d="M1472.76 -2709.11c3.02,-1.59 25.4,-0.61 30.87,-0.61 10.32,0 20.64,0 30.96,0l-0.07 -59.64 0.6 -1.53c1.11,-6.96 12.94,-4.71 19.56,-4.71 6.37,0 18.3,-2.18 19.74,4.23 1.9,3.73 0.63,53.04 0.63,61.74 7.72,0 58.8,-0.91 61.34,0.59 6.71,1.27 4.48,13.15 4.48,19.65 0,6.47 2.24,18.41 -4.48,19.64 -2.6,1.52 -53.7,0.59 -61.47,0.59l0.08 59.74 -0.69 1.68c-0.8,4.03 -3.62,4.5 -7.92,4.49l-24.04 0c-4.07,-0.02 -6.55,-0.76 -7.29,-4.49l-0.62 -1.7 0.25 -59.81 -59.98 0.07 -1.51 -0.66c-4.16,-0.62 -4.67,-3.49 -4.66,-7.85 0.01,-3.9 0.02,-7.8 0.02,-11.7 0,-6.4 -2.16,-18.17 4.2,-19.72zm239.08 28.94c1.53,-23.13 -2.86,-47.84 -10.74,-67.07 -8.52,-20.81 -23.21,-43.77 -40.17,-58.24 -28.07,-23.94 -56.18,-38.61 -96.74,-41.07 -89.85,-5.46 -161.62,64.22 -166.67,147.65 -7.15,118.16 112.8,197.26 215.02,155.93 9.41,-3.81 18.52,-8.28 26.09,-13.28 4.25,-2.8 7.9,-5.1 11.6,-8.08 4.05,-3.24 6.93,-5.77 10.68,-8.99 11.9,-10.26 24.94,-26.91 34.1,-44.61 9.15,-17.7 15.3,-39.12 16.83,-62.24z"/>
    <path class="fil19" d="M1535.12 -2770.89c0.21,10.25 0.01,20.77 0.01,31.06 0,5.87 0.73,26.31 -0.38,30.68l-61.99 0.04c-6.36,1.55 -4.2,13.32 -4.2,19.72 0,3.9 -0.01,7.8 -0.02,11.7 -0.01,4.36 0.5,7.23 4.66,7.85l61.8 0.35 0.06 61.75c0.74,3.73 3.22,4.47 7.29,4.49l24.04 0c4.3,0.01 7.12,-0.46 7.92,-4.49l0.32 -61.97 61.76 -0.04c6.72,-1.23 4.48,-13.17 4.48,-19.64 0,-6.5 2.23,-18.38 -4.48,-19.65 -10.41,-0.04 -20.85,-0.02 -31.28,-0.02 -5.83,0 -26.25,0.72 -30.63,-0.36l-0.06 -61.95c-1.44,-6.41 -13.37,-4.23 -19.74,-4.23 -6.62,0 -18.45,-2.25 -19.56,4.71z"/>
    <path class="fil20" d="M1636.39 -2709.04c-2.54,-1.5 -53.62,-0.59 -61.34,-0.59 0,-8.7 1.27,-58.01 -0.63,-61.74l0.06 61.95c4.38,1.08 24.8,0.36 30.63,0.36 10.43,0 20.87,-0.02 31.28,0.02z"/>
    <path class="fil20" d="M1472.76 -2709.11l61.99 -0.04c1.11,-4.37 0.38,-24.81 0.38,-30.68 0,-10.29 0.2,-20.81 -0.01,-31.06l-0.6 1.53 0.07 59.64c-10.32,0 -20.64,0 -30.96,0 -5.47,0 -27.85,-0.98 -30.87,0.61z"/>
    <path class="fil20" d="M1574.31 -2607.74l0.69 -1.68 -0.08 -59.74c7.77,0 58.87,0.93 61.47,-0.59l-61.76 0.04 -0.32 61.97z"/>
    <polygon class="fil20" points="1535.06,-2607.74 1535,-2669.49 1473.2,-2669.84 1474.71,-2669.18 1534.69,-2669.25 1534.44,-2609.44 "/>
   </g>
  </g>
  <g>
   <path class="fil4" d="M-1190.28 500.41c34.95,0 19.86,33.23 24.88,60.91l109.3 -122.71 -109.59 -122.55c-4.73,27.4 10.38,60.59 -24.59,60.59l-127.53 0 0 123.76 127.53 0z"/>
   <path class="fil24" d="M-1175.01 176.14c-15.64,2.51 -48.58,0.64 -66.09,0.64 -73.35,0.01 -67.51,6.34 -67.51,-66.74 0,-18.7 -1.8,-49.48 0.68,-66.73 12.03,13.11 129.32,131.01 132.92,132.83zm-166.99 397.12c-19.23,-32.22 -33.39,-65.03 -32.75,-112.88 0.57,-42.42 16.36,-84.55 36.07,-111.07 33,-44.41 77.93,-74.86 137.12,-82.65 29.34,-3.86 45.3,2.67 69.53,2.65 0.01,-31.3 -0.01,-62.6 0.05,-93.89 0.04,-26.14 -11.53,-30.35 -37.41,-56.24 -32.22,-32.25 -62.99,-63.09 -95.32,-95.26 -27.84,-27.71 -18.56,-23.72 -70.71,-23.72l-188.7 -0.04c-29.98,0.28 -48.76,16.56 -49.36,46.34 -3.13,154.38 0.27,317.27 -0.01,473.6 -0.13,70.41 59.18,53.97 136.04,53.97 23.4,0 75.41,2.76 95.45,-0.81z"/>
  </g>
  <g>
   <path class="fil29" d="M1438.32 1198.01c7.62,-24.1 -30.27,-23.94 -47.16,-26.91 -47.31,-8.3 -40.04,-1.31 -51.34,-24.74 -4.16,-8.62 -8.91,-17.25 -13.26,-25.39 -7.06,-13.21 -18.05,-45.75 -38.39,-31.06 -6.66,4.81 -35.54,69.02 -40.48,73.14 -2.7,2.26 -55.98,10.51 -64.24,11.94 -11.94,2.07 -22.1,2.69 -25.03,13.56 -3.32,12.33 7.18,19.32 12.1,24.5 6.35,6.69 11.95,12.55 18.27,19.26 30.36,32.24 28.78,19.72 25.02,45.78 -1.62,11.24 -10.21,59.74 -7.59,66.98 3.25,9 13.87,13.11 24.4,8.31 17.1,-7.77 34.06,-17.01 50.89,-25.2 18.76,-9.15 14.7,-9.85 26.64,-3.44l51.11 25.08c46.23,22.77 29.63,-31.37 25.17,-61.5 -0.88,-5.92 -1.66,-11.67 -2.56,-17.49 -1.33,-8.51 -2.87,-8.97 2.41,-14.2 8.8,-8.71 30.39,-32.96 36.79,-38.25 5.12,-4.24 15.06,-13.45 17.25,-20.37z"/>
   <path class="fil24" d="M1326.46 959.74c-15.46,2.49 -48.02,0.64 -65.32,0.64 -72.49,0.01 -66.72,6.26 -66.72,-65.96 0,-18.48 -1.78,-48.9 0.67,-65.94 11.89,12.95 127.81,129.47 131.37,131.26zm-165.04 392.48c-19.01,-31.85 -33,-64.27 -32.36,-111.57 0.56,-41.92 16.16,-83.55 35.64,-109.77 32.62,-43.88 77.02,-73.97 135.51,-81.67 29,-3.82 44.78,2.64 68.72,2.61 0.01,-30.93 -0.01,-61.86 0.04,-92.79 0.05,-25.83 -11.39,-29.99 -36.96,-55.58 -31.85,-31.86 -62.25,-62.34 -94.2,-94.13 -27.52,-27.39 -18.34,-23.45 -69.89,-23.45l-186.48 -0.04c-29.63,0.27 -48.19,16.37 -48.79,45.8 -3.08,152.57 0.27,313.55 0,468.05 -0.13,69.58 58.48,53.33 134.44,53.33 23.12,0 74.53,2.73 94.33,-0.79z"/>
  </g>
  <line class="fil30 str2" x1="-3581.41" y1="2040.44" x2="6917.25" y2= "2040.44" />
  <g style="clip-path:url(#id0)">
   <image x="-8060.27" y="1998.13" width="20387.72" height="2573.86" xlink:href="filas_Images/filas_ImgID1.png"/>
  </g>
 </g>
</svg>
