<?xml version="1.0" encoding="UTF-8"?>
<!DOCTYPE svg PUBLIC "-//W3C//DTD SVG 1.1//EN" "http://www.w3.org/Graphics/SVG/1.1/DTD/svg11.dtd">
<!-- Creator: CorelDRAW -->
<svg xmlns="http://www.w3.org/2000/svg" xml:space="preserve" width="6.35mm" height="6.35mm" version="1.1" style="shape-rendering:geometricPrecision; text-rendering:geometricPrecision; image-rendering:optimizeQuality; fill-rule:evenodd; clip-rule:evenodd"
viewBox="0 0 635 635"
 xmlns:xlink="http://www.w3.org/1999/xlink"
 xmlns:xodm="http://www.corel.com/coreldraw/odm/2003">
 <defs>
  <style type="text/css">
   <![CDATA[
    .fil0 {fill:#692878}
   ]]>
  </style>
 </defs>
 <g id="Camada_x0020_1">
  <metadata id="CorelCorpID_0Corel-Layer"/>
  <g id="_105553650592064">
   <path class="fil0" d="M158.4 52.92l207.97 0 89.96 89.75 70.33 70.17 0 294.37c0,41.18 -33.69,74.87 -74.87,74.87l-290.47 0c-29.14,0 -52.98,-23.84 -52.98,-52.98l0 -426.12c0,-27.53 22.53,-50.06 50.06,-50.06zm119.85 239.76l-17.6 -26.13c-3.22,-4.07 -6.27,-1.98 -8.4,2.9l-33.31 76.13c-4.34,9.91 3.91,7.22 14.87,7.45 2.98,0.06 5.4,-0.33 8.15,-0.25 11.49,0.31 30.8,-0.58 42.57,-0.83l8.18 -0.17c8.44,-0.05 24.42,1.87 20.8,-6.08l-18.13 -27.14c4.29,-2.49 21.3,-3.82 27.48,-3.58 28.22,1.13 54.41,15.41 69.77,38.53 3.83,5.76 4.2,7 7.09,12.89 3.35,6.82 1.92,4.03 3.76,9.67 0.53,1.61 0.7,1.87 1.16,3.67 4.9,19.2 2.22,17.12 3.15,29.7 1.19,16.33 22.64,17.8 27.58,6.53 3.87,-8.85 2.29,-22.6 0.67,-31.61 -0.87,-4.82 -3.05,-15 -4.94,-19.92 -4.9,-12.73 -7.82,-19.03 -15.91,-30.48 -9.24,-13.08 -25.92,-28.43 -40.04,-35.07 -1.43,-0.67 -3.08,-1.21 -4.46,-1.96 -8.45,-4.55 -3.72,-1.85 -11.99,-5.23 -6.16,-2.52 -18.38,-4.89 -24.51,-5.71 -17.1,-2.31 -33.36,-0.31 -49.42,4.38 -2.4,0.71 -4.17,1.89 -6.52,2.31zm61.95 202.59c-4.43,2.83 -20.43,3.86 -26.14,3.82 -39.83,-0.26 -73.6,-28.34 -83.68,-66.01 -4.48,-16.75 -1.98,-21.61 -2.85,-29.41 -1.92,-17.28 -29.97,-18.67 -29.72,4.21 0.21,18.7 1.1,23.26 5.96,39.74 8.58,29.1 33.99,57.97 61.94,70.2 10.94,4.79 17.48,7.15 28.79,9.28 14.05,2.64 29.26,2.29 42.85,-0.11 6.87,-1.21 16.46,-4.75 19.77,-5.34 1.27,1.01 1.55,1.83 2.4,3.18l11.85 17.64c1.24,1.94 6.95,12.03 10.16,4.68l35.92 -82.11c2.3,-5.24 -8.32,-4.17 -10.26,-4.1 -2.86,0.1 -5.51,0.05 -8.18,0.18 -2.73,0.12 -5.31,0.02 -8.18,0.17l-57.74 1.06c-4.95,-0.05 -14.68,-0.71 -10.85,6.54l17.96 26.38zm146.95 -255.77l-143.21 -147.07 0 147.07 143.21 0z"/>
  </g>
 </g>
</svg>
