<?xml version="1.0" encoding="UTF-8"?>
<!DOCTYPE svg PUBLIC "-//W3C//DTD SVG 1.1//EN" "http://www.w3.org/Graphics/SVG/1.1/DTD/svg11.dtd">
<!-- Creator: CorelDRAW (Versão de avaliação) -->
<svg xmlns="http://www.w3.org/2000/svg" xml:space="preserve" width="5.9266mm" height="5.9266mm" version="1.1" shape-rendering="geometricPrecision" text-rendering="geometricPrecision" image-rendering="optimizeQuality" fill-rule="evenodd" clip-rule="evenodd"
viewBox="0 0 592.66 592.66"
 xmlns:xlink="http://www.w3.org/1999/xlink"
 xmlns:xodm="http://www.corel.com/coreldraw/odm/2003">
 <g id="Camada_x0020_1">
  <metadata id="CorelCorpID_0Corel-Layer"/>
  <g id="_105553376668160">
   <path fill="#692878" d="M128.32 16.93l219.62 0 95 94.78 74.27 74.1 0 310.86c0,43.48 -35.58,79.06 -79.07,79.06l-306.73 0c-30.78,0 -55.96,-25.18 -55.96,-55.95l0 -449.98c0,-29.08 23.8,-52.87 52.87,-52.87zm126.56 253.19l-18.59 -27.59c-3.39,-4.31 -6.61,-2.1 -8.87,3.06l-35.17 80.4c-4.58,10.46 4.13,7.61 15.7,7.86 3.15,0.06 5.71,-0.35 8.61,-0.27 12.14,0.34 32.52,-0.6 44.95,-0.87l8.64 -0.18c8.91,-0.05 25.79,1.98 21.97,-6.42l-19.14 -28.66c4.52,-2.63 22.48,-4.04 29.01,-3.78 29.8,1.19 57.46,16.27 73.67,40.68 4.05,6.09 4.44,7.4 7.5,13.62 3.53,7.2 2.02,4.26 3.96,10.21 0.56,1.7 0.75,1.97 1.23,3.87 5.18,20.28 2.35,18.09 3.32,31.37 1.26,17.25 23.92,18.8 29.13,6.89 4.08,-9.34 2.42,-23.86 0.7,-33.37 -0.92,-5.09 -3.21,-15.85 -5.21,-21.05 -5.18,-13.43 -8.26,-20.09 -16.8,-32.18 -9.76,-13.81 -27.38,-30.02 -42.28,-37.03 -1.51,-0.71 -3.25,-1.28 -4.72,-2.07 -8.91,-4.81 -3.92,-1.95 -12.65,-5.52 -6.51,-2.67 -19.41,-5.16 -25.88,-6.04 -18.06,-2.44 -35.24,-0.33 -52.19,4.64 -2.54,0.74 -4.41,1.99 -6.89,2.43zm65.42 213.94c-4.67,2.98 -21.58,4.07 -27.6,4.03 -42.06,-0.28 -77.73,-29.93 -88.37,-69.71 -4.73,-17.69 -2.09,-22.82 -3.01,-31.05 -2.03,-18.26 -31.65,-19.72 -31.38,4.44 0.22,19.75 1.16,24.56 6.29,41.96 9.06,30.74 35.89,61.22 65.41,74.14 11.55,5.05 18.46,7.55 30.4,9.8 14.83,2.79 30.91,2.41 45.25,-0.11 7.26,-1.28 17.38,-5.02 20.88,-5.65 1.34,1.07 1.64,1.93 2.53,3.36l12.51 18.62c1.31,2.06 7.34,12.71 10.74,4.95l37.93 -86.7c2.42,-5.55 -8.79,-4.41 -10.84,-4.34 -3.01,0.11 -5.81,0.06 -8.64,0.19 -2.87,0.13 -5.61,0.02 -8.64,0.19l-60.97 1.11c-5.23,-0.05 -15.5,-0.74 -11.45,6.91l18.96 27.86zm155.18 -270.1l-151.23 -155.3 0 155.3 151.23 0z"/>
  </g>
 </g>
</svg>
