<?xml version="1.0" encoding="UTF-8"?>
<!DOCTYPE svg PUBLIC "-//W3C//DTD SVG 1.1//EN" "http://www.w3.org/Graphics/SVG/1.1/DTD/svg11.dtd">
<!-- Creator: CorelDRAW -->
<svg xmlns="http://www.w3.org/2000/svg" xml:space="preserve" width="26.4582mm" height="26.4582mm" version="1.1" style="shape-rendering:geometricPrecision; text-rendering:geometricPrecision; image-rendering:optimizeQuality; fill-rule:evenodd; clip-rule:evenodd"
viewBox="0 0 2645.82 2645.82"
 xmlns:xlink="http://www.w3.org/1999/xlink"
 xmlns:xodm="http://www.corel.com/coreldraw/odm/2003">
 <defs>
  <style type="text/css">
   <![CDATA[
    .fil0 {fill:#E6E7E7}
   ]]>
  </style>
 </defs>
 <g id="Camada_x0020_1">
  <metadata id="CorelCorpID_0Corel-Layer"/>
  <g id="_105553648978048">
   <path class="fil0" d="M622.88 158.74l915.08 0 395.81 394.9 309.46 308.75 0 1295.26c0,181.19 -148.24,329.43 -329.43,329.43l-1278.08 0c-128.23,0 -233.13,-104.91 -233.13,-233.13l0 -1874.92c0,-121.16 99.13,-220.29 220.29,-220.29zm527.32 1054.97l-77.44 -114.96c-14.16,-17.95 -27.56,-8.74 -36.96,12.74l-146.57 334.99c-19.07,43.6 17.22,31.73 65.44,32.75 13.12,0.27 23.76,-1.44 35.87,-1.11 50.57,1.4 135.5,-2.52 187.3,-3.64l36.01 -0.72c37.11,-0.23 107.43,8.23 91.51,-26.76l-79.76 -119.43c18.85,-10.95 93.68,-16.81 120.87,-15.73 124.19,4.94 239.43,67.8 307.01,169.5 16.85,25.36 18.5,30.83 31.22,56.74 14.73,30.01 8.43,17.73 16.52,42.53 2.31,7.1 3.1,8.23 5.12,16.14 21.57,84.48 9.77,75.37 13.83,130.69 5.26,71.88 99.65,78.35 121.36,28.73 17.03,-38.91 10.09,-99.44 2.94,-139.06 -3.83,-21.21 -13.38,-66.03 -21.72,-87.68 -21.57,-55.98 -34.42,-83.71 -70.02,-134.11 -40.64,-57.55 -114.05,-125.06 -176.16,-154.27 -6.29,-2.96 -13.55,-5.37 -19.64,-8.65 -37.14,-20.03 -16.34,-8.12 -52.75,-23.01 -27.11,-11.09 -80.87,-21.5 -107.82,-25.14 -75.24,-10.16 -146.82,-1.37 -217.47,19.31 -10.55,3.08 -18.36,8.3 -28.69,10.15zm272.59 891.41c-19.47,12.43 -89.91,16.94 -115.02,16.78 -175.25,-1.15 -323.85,-124.71 -368.2,-290.44 -19.72,-73.7 -8.72,-95.07 -12.54,-129.38 -8.45,-76.07 -131.88,-82.17 -130.76,18.5 0.91,82.3 4.83,102.33 26.21,174.84 37.76,128.06 149.57,255.1 272.56,308.91 48.12,21.05 76.91,31.47 126.68,40.83 61.79,11.63 128.76,10.06 188.54,-0.47 30.23,-5.32 72.4,-20.91 86.97,-23.53 5.59,4.46 6.83,8.06 10.56,14.01l52.14 77.59c5.46,8.56 30.57,52.95 44.72,20.62l158.06 -361.27c10.1,-23.1 -36.62,-18.37 -45.18,-18.06 -12.55,0.45 -24.2,0.22 -35.99,0.77 -11.98,0.56 -23.36,0.11 -35.99,0.79l-254.05 4.64c-21.79,-0.2 -64.6,-3.1 -47.72,28.79l79.01 116.08zm646.57 -1125.41l-630.11 -647.11 0 647.11 630.11 0z"/>
  </g>
 </g>
</svg>
