<?xml version="1.0" encoding="utf-8"?>
<!-- Generator: Adobe Illustrator 24.1.2, SVG Export Plug-In . SVG Version: 6.00 Build 0)  -->
<svg version="1.1" id="Camada_1" xmlns="http://www.w3.org/2000/svg" xmlns:xlink="http://www.w3.org/1999/xlink" x="0px" y="0px"
	 viewBox="0 0 24 24" style="enable-background:new 0 0 24 24;" xml:space="preserve">
<style type="text/css">
	.st0{fill-rule:evenodd;clip-rule:evenodd;fill:#E7E7E7;}
	.st1{fill-rule:evenodd;clip-rule:evenodd;fill:#ABABAB;}
</style>
<g>
	<path class="st0" d="M10.7,3.9h7.5c0.6,0,1.1,0.3,1.4,0.7l3.4,4.3C23,9,23.1,9.2,23.1,9.3c0,0.1,0,0.3-0.1,0.4L19.6,14
		c-0.3,0.4-0.8,0.7-1.4,0.7h-7.5l4.2-5.4L10.7,3.9z"/>
	<path class="st1" d="M14.9,9.3l3.1-3.9c0.1-0.2,0.2-0.3,0.2-0.6c0-0.5-0.4-0.9-0.9-0.9h-6.6L14.9,9.3z"/>
	<path class="st0" d="M13.3,20.1H5.9c-0.6,0-1.1-0.3-1.4-0.7l-3.4-4.3C1,15,0.9,14.8,0.9,14.7c0-0.1,0-0.3,0.1-0.4L4.4,10
		c0.3-0.4,0.8-0.7,1.4-0.7h7.5l-4.2,5.4L13.3,20.1z"/>
</g>
</svg>
